<svg xmlns="http://www.w3.org/2000/svg" xmlns:xlink="http://www.w3.org/1999/xlink" width="1820" zoomAndPan="magnify" viewBox="0 0 1365 1535.999932" height="2048" preserveAspectRatio="xMidYMid meet" version="1.0"><defs><g/><clipPath id="f027095a84"><path d="M 0.441406 0.390625 L 1311.578125 0.390625 L 1311.578125 1281.5 L 0.441406 1281.5 Z M 0.441406 0.390625 " clip-rule="nonzero"/></clipPath><clipPath id="50f6a51c1d"><path d="M 64.425781 0.390625 L 1247.167969 0.390625 C 1264.136719 0.390625 1280.410156 7.132812 1292.410156 19.132812 C 1304.410156 31.132812 1311.152344 47.40625 1311.152344 64.375 L 1311.152344 1217.515625 C 1311.152344 1234.484375 1304.410156 1250.761719 1292.410156 1262.757812 C 1280.410156 1274.757812 1264.136719 1281.5 1247.167969 1281.5 L 64.425781 1281.5 C 47.457031 1281.5 31.183594 1274.757812 19.183594 1262.757812 C 7.183594 1250.761719 0.441406 1234.484375 0.441406 1217.515625 L 0.441406 64.375 C 0.441406 47.40625 7.183594 31.132812 19.183594 19.132812 C 31.183594 7.132812 47.457031 0.390625 64.425781 0.390625 Z M 64.425781 0.390625 " clip-rule="nonzero"/></clipPath><clipPath id="ffde03270e"><path d="M 0.441406 0.390625 L 1311.160156 0.390625 L 1311.160156 1281.5 L 0.441406 1281.5 Z M 0.441406 0.390625 " clip-rule="nonzero"/></clipPath><clipPath id="e038aba131"><path d="M 64.425781 0.390625 L 1247.167969 0.390625 C 1264.136719 0.390625 1280.410156 7.132812 1292.410156 19.132812 C 1304.410156 31.132812 1311.152344 47.40625 1311.152344 64.375 L 1311.152344 1217.515625 C 1311.152344 1234.484375 1304.410156 1250.761719 1292.410156 1262.757812 C 1280.410156 1274.757812 1264.136719 1281.5 1247.167969 1281.5 L 64.425781 1281.5 C 47.457031 1281.5 31.183594 1274.757812 19.183594 1262.757812 C 7.183594 1250.761719 0.441406 1234.484375 0.441406 1217.515625 L 0.441406 64.375 C 0.441406 47.40625 7.183594 31.132812 19.183594 19.132812 C 31.183594 7.132812 47.457031 0.390625 64.425781 0.390625 Z M 64.425781 0.390625 " clip-rule="nonzero"/></clipPath><clipPath id="8f06965b27"><rect x="0" width="1312" y="0" height="1282"/></clipPath><clipPath id="b4581b365e"><rect x="0" width="1200" y="0" height="553"/></clipPath><clipPath id="829facb8b9"><path d="M 833.925781 677.21875 L 1021.875 677.21875 L 1021.875 866.117188 L 833.925781 866.117188 Z M 833.925781 677.21875 " clip-rule="nonzero"/></clipPath><clipPath id="76819b425c"><path d="M 279.960938 480.980469 L 401 480.980469 L 401 592.773438 L 279.960938 592.773438 Z M 279.960938 480.980469 " clip-rule="nonzero"/></clipPath><clipPath id="df0cbf773b"><path d="M 340.472656 480.980469 C 307.050781 480.980469 279.960938 506.007812 279.960938 536.878906 C 279.960938 567.75 307.050781 592.773438 340.472656 592.773438 C 373.890625 592.773438 400.980469 567.75 400.980469 536.878906 C 400.980469 506.007812 373.890625 480.980469 340.472656 480.980469 Z M 340.472656 480.980469 " clip-rule="nonzero"/></clipPath><clipPath id="8d3e50738a"><path d="M 0.960938 0.980469 L 122 0.980469 L 122 112.773438 L 0.960938 112.773438 Z M 0.960938 0.980469 " clip-rule="nonzero"/></clipPath><clipPath id="4833cde1a7"><path d="M 61.472656 0.980469 C 28.050781 0.980469 0.960938 26.007812 0.960938 56.878906 C 0.960938 87.75 28.050781 112.773438 61.472656 112.773438 C 94.890625 112.773438 121.980469 87.75 121.980469 56.878906 C 121.980469 26.007812 94.890625 0.980469 61.472656 0.980469 Z M 61.472656 0.980469 " clip-rule="nonzero"/></clipPath><clipPath id="5eddbeed71"><rect x="0" width="122" y="0" height="113"/></clipPath><clipPath id="befd364e86"><rect x="0" width="1312" y="0" height="1282"/></clipPath></defs><g transform="matrix(1, 0, 0, 1, 11, 118)"><g clip-path="url(#befd364e86)"><g clip-path="url(#f027095a84)"><g clip-path="url(#50f6a51c1d)"><g transform="matrix(1, 0, 0, 1, -0.000000000000001776, -0.000000000000127898)"><g clip-path="url(#8f06965b27)"><g clip-path="url(#ffde03270e)"><g clip-path="url(#e038aba131)"><path fill="#2e4a5a" d="M 0.441406 0.390625 L 1311.578125 0.390625 L 1311.578125 1281.5 L 0.441406 1281.5 Z M 0.441406 0.390625 " fill-opacity="1" fill-rule="nonzero"/></g></g></g></g></g></g><g transform="matrix(1, 0, 0, 1, 71, 406)"><g clip-path="url(#b4581b365e)"><g fill="#ffffff" fill-opacity="1"><g transform="translate(2.505707, 441.348364)"><g><path d="M 159.15625 -161 L 129.265625 -162.84375 L 129.265625 -99.359375 C 129.265625 -91.078125 130.566406 -85.097656 133.171875 -81.421875 C 135.773438 -77.742188 140.679688 -75.90625 147.890625 -75.90625 C 155.097656 -75.90625 160.617188 -75.671875 164.453125 -75.203125 C 168.285156 -74.742188 172.347656 -73.289062 176.640625 -70.84375 C 183.691406 -66.851562 187.21875 -56.578125 187.21875 -40.015625 C 187.21875 -20.703125 182.925781 -8.894531 174.34375 -4.59375 C 169.738281 -2.445312 165.671875 -1.144531 162.140625 -0.6875 C 158.617188 -0.226562 153.484375 0 146.734375 0 C 114.847656 0 90.625 -7.203125 74.0625 -21.609375 C 57.5 -36.023438 49.21875 -60.410156 49.21875 -94.765625 L 49.21875 -162.84375 C 43.394531 -161.914062 37.109375 -161.453125 30.359375 -161.453125 C 23.609375 -161.453125 18.007812 -164.054688 13.5625 -169.265625 C 9.125 -174.484375 6.90625 -183.378906 6.90625 -195.953125 C 6.90625 -208.523438 7.671875 -217.648438 9.203125 -223.328125 C 10.734375 -229.003906 12.878906 -233.066406 15.640625 -235.515625 C 20.546875 -239.503906 26.679688 -241.5 34.046875 -241.5 L 49.21875 -239.65625 L 49.21875 -287.046875 C 49.21875 -294.097656 49.445312 -299.304688 49.90625 -302.671875 C 50.363281 -306.046875 51.820312 -309.726562 54.28125 -313.71875 C 58.269531 -321.382812 70.078125 -325.21875 89.703125 -325.21875 C 110.554688 -325.21875 122.972656 -319.546875 126.953125 -308.203125 C 128.492188 -303.296875 129.265625 -295.472656 129.265625 -284.734375 L 129.265625 -239.65625 C 142.753906 -240.882812 152.945312 -241.5 159.84375 -241.5 C 166.75 -241.5 171.960938 -241.269531 175.484375 -240.8125 C 179.015625 -240.351562 183.082031 -238.894531 187.6875 -236.4375 C 195.65625 -232.445312 199.640625 -220.640625 199.640625 -201.015625 C 199.640625 -181.703125 195.5 -169.894531 187.21875 -165.59375 C 182.613281 -163.445312 178.546875 -162.144531 175.015625 -161.6875 C 171.492188 -161.226562 166.207031 -161 159.15625 -161 Z M 159.15625 -161 "/></g></g></g><g fill="#ffffff" fill-opacity="1"><g transform="translate(209.034052, 441.348364)"><g><path d="M 18.40625 -201.9375 C 18.40625 -208.988281 18.632812 -214.273438 19.09375 -217.796875 C 19.550781 -221.328125 20.851562 -225.394531 23 -230 C 27.289062 -237.96875 39.25 -241.953125 58.875 -241.953125 C 73.59375 -241.953125 84.019531 -239.347656 90.15625 -234.140625 C 95.375 -229.847656 98.132812 -223.253906 98.4375 -214.359375 C 98.75 -211.296875 98.90625 -206.847656 98.90625 -201.015625 L 98.90625 -40.015625 C 98.90625 -32.960938 98.671875 -27.671875 98.203125 -24.140625 C 97.742188 -20.617188 96.289062 -16.554688 93.84375 -11.953125 C 89.851562 -3.984375 78.046875 0 58.421875 0 C 39.097656 0 27.289062 -4.140625 23 -12.421875 C 20.851562 -17.015625 19.550781 -21 19.09375 -24.375 C 18.632812 -27.75 18.40625 -33.117188 18.40625 -40.484375 Z M 94.0625 -287.265625 C 91.769531 -282.816406 87.707031 -279.671875 81.875 -277.828125 C 76.050781 -275.992188 68.304688 -275.078125 58.640625 -275.078125 C 48.984375 -275.078125 41.242188 -275.992188 35.421875 -277.828125 C 29.597656 -279.671875 25.535156 -282.894531 23.234375 -287.5 C 20.929688 -292.101562 19.550781 -296.164062 19.09375 -299.6875 C 18.632812 -303.21875 18.40625 -308.507812 18.40625 -315.5625 C 18.40625 -322.613281 18.632812 -327.898438 19.09375 -331.421875 C 19.550781 -334.953125 20.851562 -338.863281 23 -343.15625 C 27.289062 -351.4375 39.25 -355.578125 58.875 -355.578125 C 78.195312 -355.578125 89.851562 -351.4375 93.84375 -343.15625 C 96.289062 -338.5625 97.742188 -334.5 98.203125 -330.96875 C 98.671875 -327.445312 98.90625 -322.15625 98.90625 -315.09375 C 98.90625 -308.039062 98.671875 -302.75 98.203125 -299.21875 C 97.742188 -295.695312 96.363281 -291.710938 94.0625 -287.265625 Z M 94.0625 -287.265625 "/></g></g></g><g fill="#ffffff" fill-opacity="1"><g transform="translate(326.327446, 441.348364)"><g><path d="M 97.515625 -210.21875 C 111.929688 -231.988281 129.257812 -242.875 149.5 -242.875 C 180.78125 -242.875 204.085938 -229.535156 219.421875 -202.859375 C 222.796875 -207.460938 226.859375 -212.289062 231.609375 -217.34375 C 236.359375 -222.40625 243.945312 -227.925781 254.375 -233.90625 C 264.800781 -239.882812 275.535156 -242.875 286.578125 -242.875 C 311.109375 -242.875 331.65625 -233.441406 348.21875 -214.578125 C 364.78125 -195.722656 373.0625 -164.523438 373.0625 -120.984375 L 373.0625 -40.484375 C 373.0625 -33.429688 372.832031 -28.140625 372.375 -24.609375 C 371.914062 -21.078125 370.457031 -17.015625 368 -12.421875 C 364.007812 -4.140625 352.203125 0 332.578125 0 C 313.253906 0 301.445312 -4.289062 297.15625 -12.875 C 295.007812 -17.476562 293.707031 -21.539062 293.25 -25.0625 C 292.789062 -28.59375 292.5625 -33.882812 292.5625 -40.9375 L 292.5625 -121.4375 C 292.5625 -148.113281 283.054688 -161.453125 264.046875 -161.453125 C 253.304688 -161.453125 246.019531 -157.925781 242.1875 -150.875 C 238.351562 -143.820312 236.4375 -133.859375 236.4375 -120.984375 L 236.4375 -40.484375 C 236.4375 -33.117188 236.207031 -27.75 235.75 -24.375 C 235.289062 -21 233.832031 -17.015625 231.375 -12.421875 C 227.082031 -4.140625 215.125 0 195.5 0 C 176.175781 0 164.367188 -4.289062 160.078125 -12.875 C 157.929688 -17.476562 156.628906 -21.539062 156.171875 -25.0625 C 155.710938 -28.59375 155.484375 -33.882812 155.484375 -40.9375 L 155.484375 -121.4375 C 155.484375 -148.113281 145.972656 -161.453125 126.953125 -161.453125 C 108.554688 -161.453125 99.359375 -148.113281 99.359375 -121.4375 L 99.359375 -40.015625 C 99.359375 -32.960938 99.128906 -27.671875 98.671875 -24.140625 C 98.210938 -20.617188 96.753906 -16.554688 94.296875 -11.953125 C 89.703125 -3.984375 77.742188 0 58.421875 0 C 39.097656 0 27.289062 -4.140625 23 -12.421875 C 20.851562 -17.015625 19.550781 -21 19.09375 -24.375 C 18.632812 -27.75 18.40625 -33.117188 18.40625 -40.484375 L 18.40625 -202.40625 C 18.40625 -209.457031 18.632812 -214.742188 19.09375 -218.265625 C 19.550781 -221.796875 21.003906 -225.707031 23.453125 -230 C 28.054688 -238.28125 38.941406 -242.421875 56.109375 -242.421875 C 73.285156 -242.421875 84.476562 -239.660156 89.6875 -234.140625 C 94.90625 -228.617188 97.515625 -220.644531 97.515625 -210.21875 Z M 97.515625 -210.21875 "/></g></g></g><g fill="#ffffff" fill-opacity="1"><g transform="translate(717.765367, 441.348364)"><g><path d="M 175.71875 -216.65625 C 177.5625 -233.832031 189.675781 -242.421875 212.0625 -242.421875 C 224.019531 -242.421875 232.910156 -241.5 238.734375 -239.65625 C 244.566406 -237.820312 248.628906 -234.601562 250.921875 -230 C 253.222656 -225.394531 254.601562 -221.328125 255.0625 -217.796875 C 255.53125 -214.273438 255.765625 -208.988281 255.765625 -201.9375 L 255.765625 -40.9375 C 255.765625 -33.882812 255.53125 -28.59375 255.0625 -25.0625 C 254.601562 -21.539062 253.300781 -17.476562 251.15625 -12.875 C 246.863281 -4.90625 236.359375 -0.921875 219.640625 -0.921875 C 202.929688 -0.921875 191.738281 -2.988281 186.0625 -7.125 C 180.394531 -11.269531 177.101562 -17.328125 176.1875 -25.296875 C 164.832031 -9.046875 145.890625 -0.921875 119.359375 -0.921875 C 92.835938 -0.921875 68.226562 -13.03125 45.53125 -37.25 C 22.84375 -61.476562 11.5 -89.613281 11.5 -121.65625 C 11.5 -153.707031 22.921875 -181.769531 45.765625 -205.84375 C 68.617188 -229.914062 93.691406 -241.953125 120.984375 -241.953125 C 131.410156 -241.953125 140.914062 -240.113281 149.5 -236.4375 C 158.082031 -232.757812 164.0625 -229.3125 167.4375 -226.09375 C 170.8125 -222.875 173.570312 -219.726562 175.71875 -216.65625 Z M 92 -120.96875 C 92 -110.851562 95.984375 -101.734375 103.953125 -93.609375 C 111.929688 -85.484375 121.59375 -81.421875 132.9375 -81.421875 C 144.28125 -81.421875 153.707031 -85.5625 161.21875 -93.84375 C 168.738281 -102.125 172.5 -111.242188 172.5 -121.203125 C 172.5 -131.171875 168.894531 -140.445312 161.6875 -149.03125 C 154.476562 -157.625 144.816406 -161.921875 132.703125 -161.921875 C 120.597656 -161.921875 110.785156 -157.625 103.265625 -149.03125 C 95.753906 -140.445312 92 -131.09375 92 -120.96875 Z M 92 -120.96875 "/></g></g></g><g fill="#ffffff" fill-opacity="1"><g transform="translate(991.909895, 441.348364)"><g><path d="M 159.15625 -161 L 129.265625 -162.84375 L 129.265625 -99.359375 C 129.265625 -91.078125 130.566406 -85.097656 133.171875 -81.421875 C 135.773438 -77.742188 140.679688 -75.90625 147.890625 -75.90625 C 155.097656 -75.90625 160.617188 -75.671875 164.453125 -75.203125 C 168.285156 -74.742188 172.347656 -73.289062 176.640625 -70.84375 C 183.691406 -66.851562 187.21875 -56.578125 187.21875 -40.015625 C 187.21875 -20.703125 182.925781 -8.894531 174.34375 -4.59375 C 169.738281 -2.445312 165.671875 -1.144531 162.140625 -0.6875 C 158.617188 -0.226562 153.484375 0 146.734375 0 C 114.847656 0 90.625 -7.203125 74.0625 -21.609375 C 57.5 -36.023438 49.21875 -60.410156 49.21875 -94.765625 L 49.21875 -162.84375 C 43.394531 -161.914062 37.109375 -161.453125 30.359375 -161.453125 C 23.609375 -161.453125 18.007812 -164.054688 13.5625 -169.265625 C 9.125 -174.484375 6.90625 -183.378906 6.90625 -195.953125 C 6.90625 -208.523438 7.671875 -217.648438 9.203125 -223.328125 C 10.734375 -229.003906 12.878906 -233.066406 15.640625 -235.515625 C 20.546875 -239.503906 26.679688 -241.5 34.046875 -241.5 L 49.21875 -239.65625 L 49.21875 -287.046875 C 49.21875 -294.097656 49.445312 -299.304688 49.90625 -302.671875 C 50.363281 -306.046875 51.820312 -309.726562 54.28125 -313.71875 C 58.269531 -321.382812 70.078125 -325.21875 89.703125 -325.21875 C 110.554688 -325.21875 122.972656 -319.546875 126.953125 -308.203125 C 128.492188 -303.296875 129.265625 -295.472656 129.265625 -284.734375 L 129.265625 -239.65625 C 142.753906 -240.882812 152.945312 -241.5 159.84375 -241.5 C 166.75 -241.5 171.960938 -241.269531 175.484375 -240.8125 C 179.015625 -240.351562 183.082031 -238.894531 187.6875 -236.4375 C 195.65625 -232.445312 199.640625 -220.640625 199.640625 -201.015625 C 199.640625 -181.703125 195.5 -169.894531 187.21875 -165.59375 C 182.613281 -163.445312 178.546875 -162.144531 175.015625 -161.6875 C 171.492188 -161.226562 166.207031 -161 159.15625 -161 Z M 159.15625 -161 "/></g></g></g></g></g><g clip-path="url(#829facb8b9)"><path fill="#2e4a5a" d="M 1019.820312 915.96875 C 1017.632812 903.082031 1013.953125 890.617188 1008.523438 878.734375 C 1004.382812 869.660156 999.957031 860.730469 995.875 851.617188 C 991.992188 842.945312 987.472656 834.796875 980.492188 828.128906 C 975.445312 823.296875 974.679688 816.847656 977.757812 810.523438 C 980.511719 804.890625 984.082031 799.75 988.09375 794.996094 C 996.820312 784.589844 1003.128906 773 1005.914062 759.695312 C 1008.757812 746.101562 1005.804688 735.183594 1005.09375 732.648438 C 1003.800781 727.984375 1002.125 724.25 1000.792969 721.679688 C 995.199219 709.90625 990.660156 704.382812 987.417969 701.542969 C 986.960938 701.140625 986.433594 700.722656 985.667969 699.9375 C 981.585938 695.875 978.125 689.09375 977.121094 687.65625 C 976.773438 687.164062 976.648438 686.34375 975.664062 686.269531 C 975.589844 688.328125 976.484375 690.113281 976.8125 692.285156 C 974.917969 690.371094 973.621094 688.367188 971.417969 686.726562 C 971.453125 688.402344 972.855469 688.949219 973.019531 690.644531 C 968.28125 686.269531 963.945312 682.023438 959.117188 678.414062 C 958.96875 678.5625 958.804688 678.6875 958.660156 678.835938 C 960.429688 681.386719 962.214844 683.953125 964.292969 686.945312 C 959.242188 683.898438 954.652344 681.128906 950.058594 678.378906 C 950.476562 680.328125 951.933594 681.277344 953.464844 682.898438 C 945.628906 680.21875 938.265625 677.996094 930.539062 677.230469 C 932.417969 679.015625 935.132812 679.144531 937.117188 680.730469 C 928.734375 680.347656 920.40625 680.164062 912.078125 681.113281 C 917.710938 682.207031 923.230469 683.480469 928.84375 684.539062 C 917.238281 687.253906 905.683594 689.96875 894.4375 693.742188 C 894.492188 693.960938 894.546875 694.179688 894.582031 694.398438 C 896.972656 694.195312 899.375 694.015625 902.402344 693.777344 C 893.21875 697.898438 885.214844 702.582031 877.945312 708.613281 C 872.3125 713.277344 867.429688 718.835938 861.195312 722.773438 C 861.140625 722.808594 861.214844 723.027344 861.25 723.320312 C 864.605469 723.226562 867.191406 720.839844 870.984375 720.003906 C 867.867188 724.375 864.332031 727.691406 860.867188 731.921875 C 863.949219 731.101562 865.441406 728.96875 867.8125 727.984375 C 868.03125 729.386719 867.410156 730.152344 867.027344 730.972656 C 863.875 737.824219 862.492188 745.078125 862.65625 752.550781 C 862.855469 761.972656 865.753906 770.59375 871.238281 778.320312 C 872.460938 780.035156 873.589844 781.820312 874.519531 783.695312 C 876.066406 786.757812 875.558594 789.089844 873.0625 791.496094 C 869.289062 795.121094 869.433594 799.058594 873.609375 802.339844 C 874.992188 803.433594 875.300781 804.652344 874.792969 806.238281 C 874.445312 807.277344 873.917969 812.164062 873.535156 813.183594 C 872.914062 814.804688 872.824219 816.171875 874.246094 816.9375 L 878.347656 819.125 C 877.125 822.914062 880.132812 826.121094 881.992188 826.542969 C 884.230469 827.070312 885.5625 828.4375 886.894531 830.1875 C 890.609375 835.105469 895.09375 839.023438 901.582031 839.609375 C 906.503906 840.046875 911.367188 839.679688 916.199219 838.441406 C 920.117188 837.441406 923.90625 835.910156 927.933594 835.34375 C 928.917969 835.199219 930.140625 834.558594 930.8125 835.378906 C 931.652344 836.402344 930.46875 837.367188 930.046875 838.3125 C 928.460938 841.777344 926.660156 845.148438 925.472656 848.792969 C 924.433594 851.964844 923.230469 855.082031 921.71875 858.085938 C 917.671875 866.089844 913.699219 874.125 912.664062 883.238281 C 912.390625 885.625 912.132812 887.992188 911.167969 890.289062 C 908.398438 896.90625 905.609375 903.519531 903.257812 910.28125 C 900.140625 919.320312 899.375 928.671875 900.34375 938.203125 C 900.632812 941.007812 900.398438 941.0625 897.71875 940.460938 C 888.097656 938.3125 878.402344 936.925781 868.503906 938.164062 C 857.496094 939.550781 848.128906 944.070312 840.765625 952.542969 C 835.808594 958.25 830.6875 963.804688 825.53125 969.308594 C 822.652344 972.390625 822.578125 972.226562 818.933594 970.148438 C 816.039062 968.488281 813.046875 967.453125 810.097656 970.074219 C 809.402344 970.695312 808.800781 970.585938 808 970.148438 C 805.59375 968.835938 804.210938 966.777344 803.242188 964.316406 C 802.332031 961.984375 801.386719 959.667969 799.34375 958.03125 C 795.953125 955.3125 790.886719 956.425781 789.175781 960.378906 C 788.71875 961.417969 788.136719 961.949219 787.042969 962.277344 C 783.015625 963.460938 781.847656 966.25 784.015625 969.710938 C 784.671875 970.769531 784.671875 971.441406 783.835938 972.355469 C 782.503906 973.792969 782.03125 975.433594 783.289062 977.21875 C 783.726562 977.820312 783.816406 978.476562 783.433594 979.1875 C 782.59375 980.738281 783.179688 982.050781 784.234375 983.234375 C 784.65625 983.6875 785.382812 984.089844 785.183594 984.746094 C 783.945312 988.847656 787.40625 991.398438 789.15625 993.804688 C 791.179688 996.609375 793.109375 999.652344 795.445312 1002.277344 C 796.0625 1002.96875 796.757812 1003.609375 797.484375 1004.171875 C 800.109375 1006.234375 802.75 1008.253906 804.828125 1010.972656 C 807.050781 1013.886719 809.332031 1016.75 811.773438 1019.480469 C 816.621094 1024.894531 822.5625 1027.699219 829.761719 1025.039062 C 838.800781 1021.703125 848.09375 1021.195312 857.570312 1021.105469 C 871.546875 1020.976562 885.378906 1019.191406 899.046875 1016.203125 C 905.117188 1014.871094 911.003906 1014.523438 916.855469 1016.964844 C 917.492188 1017.238281 918.203125 1017.3125 918.894531 1017.476562 C 928.828125 1019.917969 938.960938 1021.121094 949.128906 1022.050781 C 961.976562 1023.21875 974.480469 1021.921875 986.507812 1017.074219 C 996.128906 1013.210938 1003.691406 1007.144531 1007.5 997.101562 C 1009.105469 992.875 1010.707031 988.644531 1012.605469 984.546875 C 1018.765625 971.261719 1021.933594 957.375 1021.84375 942.683594 C 1021.789062 933.699219 1021.371094 924.769531 1019.875 915.914062 Z M 1019.820312 915.96875 " fill-opacity="1" fill-rule="nonzero"/></g><g clip-path="url(#76819b425c)"><g clip-path="url(#df0cbf773b)"><g transform="matrix(1, 0, 0, 1, 279, 480)"><g clip-path="url(#5eddbeed71)"><g clip-path="url(#8d3e50738a)"><g clip-path="url(#4833cde1a7)"><path fill="#e49178" d="M 0.960938 0.980469 L 121.925781 0.980469 L 121.925781 112.773438 L 0.960938 112.773438 Z M 0.960938 0.980469 " fill-opacity="1" fill-rule="nonzero"/></g></g></g></g></g></g></g></g></svg>
