<svg xmlns="http://www.w3.org/2000/svg" xmlns:xlink="http://www.w3.org/1999/xlink" width="1820" zoomAndPan="magnify" viewBox="0 0 1365 1535.999932" height="2048" preserveAspectRatio="xMidYMid meet" version="1.0"><defs><g/><clipPath id="895215e078"><path d="M 262.699219 620.742188 L 352.316406 620.742188 L 352.316406 710.355469 L 262.699219 710.355469 Z M 262.699219 620.742188 " clip-rule="nonzero"/></clipPath><clipPath id="4c98b0cf5d"><path d="M 307.507812 620.742188 C 282.761719 620.742188 262.699219 640.800781 262.699219 665.550781 C 262.699219 690.296875 282.761719 710.355469 307.507812 710.355469 C 332.253906 710.355469 352.316406 690.296875 352.316406 665.550781 C 352.316406 640.800781 332.253906 620.742188 307.507812 620.742188 Z M 307.507812 620.742188 " clip-rule="nonzero"/></clipPath><clipPath id="f4f3476347"><path d="M 0.699219 0.742188 L 90.316406 0.742188 L 90.316406 90.355469 L 0.699219 90.355469 Z M 0.699219 0.742188 " clip-rule="nonzero"/></clipPath><clipPath id="825b9878dd"><path d="M 45.507812 0.742188 C 20.761719 0.742188 0.699219 20.800781 0.699219 45.550781 C 0.699219 70.296875 20.761719 90.355469 45.507812 90.355469 C 70.253906 90.355469 90.316406 70.296875 90.316406 45.550781 C 90.316406 20.800781 70.253906 0.742188 45.507812 0.742188 Z M 45.507812 0.742188 " clip-rule="nonzero"/></clipPath><clipPath id="faa593360c"><rect x="0" width="91" y="0" height="91"/></clipPath><clipPath id="a543217269"><path d="M 89.230469 150.351562 L 1276 150.351562 L 1276 1279 L 89.230469 1279 Z M 89.230469 150.351562 " clip-rule="nonzero"/></clipPath><clipPath id="cd71559f23"><path d="M 153.214844 150.351562 L 1211.785156 150.351562 C 1228.753906 150.351562 1245.03125 157.089844 1257.027344 169.089844 C 1269.027344 181.089844 1275.769531 197.363281 1275.769531 214.335938 L 1275.769531 1215.015625 C 1275.769531 1231.984375 1269.027344 1248.261719 1257.027344 1260.261719 C 1245.03125 1272.257812 1228.753906 1279 1211.785156 1279 L 153.214844 1279 C 136.246094 1279 119.96875 1272.257812 107.972656 1260.261719 C 95.972656 1248.261719 89.230469 1231.984375 89.230469 1215.015625 L 89.230469 214.335938 C 89.230469 197.363281 95.972656 181.089844 107.972656 169.089844 C 119.96875 157.089844 136.246094 150.351562 153.214844 150.351562 Z M 153.214844 150.351562 " clip-rule="nonzero"/></clipPath><clipPath id="35b54e07bf"><path d="M 0.230469 0.351562 L 1186.839844 0.351562 L 1186.839844 1129 L 0.230469 1129 Z M 0.230469 0.351562 " clip-rule="nonzero"/></clipPath><clipPath id="63585fa70b"><path d="M 64.214844 0.351562 L 1122.785156 0.351562 C 1139.753906 0.351562 1156.03125 7.089844 1168.027344 19.089844 C 1180.027344 31.089844 1186.769531 47.363281 1186.769531 64.335938 L 1186.769531 1065.015625 C 1186.769531 1081.984375 1180.027344 1098.261719 1168.027344 1110.261719 C 1156.03125 1122.257812 1139.753906 1129 1122.785156 1129 L 64.214844 1129 C 47.246094 1129 30.96875 1122.257812 18.972656 1110.261719 C 6.972656 1098.261719 0.230469 1081.984375 0.230469 1065.015625 L 0.230469 64.335938 C 0.230469 47.363281 6.972656 31.089844 18.972656 19.089844 C 30.96875 7.089844 47.246094 0.351562 64.214844 0.351562 Z M 64.214844 0.351562 " clip-rule="nonzero"/></clipPath><clipPath id="0b34162aaf"><rect x="0" width="1187" y="0" height="1129"/></clipPath><clipPath id="54dfd22d69"><rect x="0" width="994" y="0" height="458"/></clipPath><clipPath id="38a4e4a404"><path d="M 811.539062 696.105469 L 977.128906 696.105469 L 977.128906 862.605469 L 811.539062 862.605469 Z M 811.539062 696.105469 " clip-rule="nonzero"/></clipPath><clipPath id="a2239b3b00"><path d="M 356.066406 538.761719 L 456.492188 538.761719 L 456.492188 631.242188 L 356.066406 631.242188 Z M 356.066406 538.761719 " clip-rule="nonzero"/></clipPath><clipPath id="f011682f8f"><path d="M 406.121094 538.761719 C 378.476562 538.761719 356.066406 559.464844 356.066406 585 C 356.066406 610.539062 378.476562 631.242188 406.121094 631.242188 C 433.769531 631.242188 456.179688 610.539062 456.179688 585 C 456.179688 559.464844 433.769531 538.761719 406.121094 538.761719 Z M 406.121094 538.761719 " clip-rule="nonzero"/></clipPath><clipPath id="86130436fa"><path d="M 0.0664062 0.761719 L 100.238281 0.761719 L 100.238281 93.242188 L 0.0664062 93.242188 Z M 0.0664062 0.761719 " clip-rule="nonzero"/></clipPath><clipPath id="e6558f335a"><path d="M 50.121094 0.761719 C 22.476562 0.761719 0.0664062 21.464844 0.0664062 47 C 0.0664062 72.539062 22.476562 93.242188 50.121094 93.242188 C 77.769531 93.242188 100.179688 72.539062 100.179688 47 C 100.179688 21.464844 77.769531 0.761719 50.121094 0.761719 Z M 50.121094 0.761719 " clip-rule="nonzero"/></clipPath><clipPath id="7253f11be5"><rect x="0" width="101" y="0" height="94"/></clipPath></defs><g clip-path="url(#895215e078)"><g clip-path="url(#4c98b0cf5d)"><g transform="matrix(1, 0, 0, 1, 262, 620)"><g clip-path="url(#faa593360c)"><g clip-path="url(#f4f3476347)"><g clip-path="url(#825b9878dd)"><path fill="#ffffff" d="M 0.699219 0.742188 L 90.316406 0.742188 L 90.316406 90.355469 L 0.699219 90.355469 Z M 0.699219 0.742188 " fill-opacity="1" fill-rule="nonzero"/></g></g></g></g></g></g><g clip-path="url(#a543217269)"><g clip-path="url(#cd71559f23)"><g transform="matrix(1, 0, 0, 1, 89, 150)"><g clip-path="url(#0b34162aaf)"><g clip-path="url(#35b54e07bf)"><g clip-path="url(#63585fa70b)"><path fill="#90a093" d="M 0.230469 0.351562 L 1186.195312 0.351562 L 1186.195312 1129 L 0.230469 1129 Z M 0.230469 0.351562 " fill-opacity="1" fill-rule="nonzero"/></g></g></g></g></g></g><g transform="matrix(1, 0, 0, 1, 185, 484)"><g clip-path="url(#54dfd22d69)"><g fill="#ffffff" fill-opacity="1"><g transform="translate(2.814505, 364.601517)"><g><path d="M 131.65625 -133.1875 L 106.921875 -134.703125 L 106.921875 -82.1875 C 106.921875 -75.34375 108 -70.394531 110.15625 -67.34375 C 112.3125 -64.300781 116.367188 -62.78125 122.328125 -62.78125 C 128.296875 -62.78125 132.863281 -62.585938 136.03125 -62.203125 C 139.207031 -61.828125 142.570312 -60.628906 146.125 -58.609375 C 151.957031 -55.304688 154.875 -46.804688 154.875 -33.109375 C 154.875 -17.117188 151.320312 -7.351562 144.21875 -3.8125 C 140.414062 -2.03125 137.054688 -0.945312 134.140625 -0.5625 C 131.222656 -0.1875 126.972656 0 121.390625 0 C 95.003906 0 74.960938 -5.957031 61.265625 -17.875 C 47.566406 -29.800781 40.71875 -49.972656 40.71875 -78.390625 L 40.71875 -134.703125 C 35.894531 -133.941406 30.691406 -133.5625 25.109375 -133.5625 C 19.535156 -133.5625 14.90625 -135.71875 11.21875 -140.03125 C 7.539062 -144.34375 5.703125 -151.695312 5.703125 -162.09375 C 5.703125 -172.5 6.335938 -180.046875 7.609375 -184.734375 C 8.878906 -189.429688 10.65625 -192.796875 12.9375 -194.828125 C 17 -198.128906 22.070312 -199.78125 28.15625 -199.78125 L 40.71875 -198.25 L 40.71875 -237.453125 C 40.71875 -243.285156 40.90625 -247.597656 41.28125 -250.390625 C 41.664062 -253.179688 42.875 -256.222656 44.90625 -259.515625 C 48.195312 -265.859375 57.960938 -269.03125 74.203125 -269.03125 C 91.453125 -269.03125 101.726562 -264.335938 105.03125 -254.953125 C 106.289062 -250.898438 106.921875 -244.429688 106.921875 -235.546875 L 106.921875 -198.25 C 118.085938 -199.269531 126.523438 -199.78125 132.234375 -199.78125 C 137.941406 -199.78125 142.253906 -199.585938 145.171875 -199.203125 C 148.085938 -198.828125 151.445312 -197.625 155.25 -195.59375 C 161.851562 -192.289062 165.15625 -182.523438 165.15625 -166.296875 C 165.15625 -150.304688 161.726562 -140.535156 154.875 -136.984375 C 151.070312 -135.210938 147.710938 -134.132812 144.796875 -133.75 C 141.878906 -133.375 137.5 -133.1875 131.65625 -133.1875 Z M 131.65625 -133.1875 "/></g></g></g><g fill="#ffffff" fill-opacity="1"><g transform="translate(173.663269, 364.601517)"><g><path d="M 15.21875 -167.046875 C 15.21875 -172.890625 15.40625 -177.269531 15.78125 -180.1875 C 16.164062 -183.101562 17.25 -186.460938 19.03125 -190.265625 C 22.582031 -196.859375 32.472656 -200.15625 48.703125 -200.15625 C 60.878906 -200.15625 69.503906 -198 74.578125 -193.6875 C 78.890625 -190.132812 81.175781 -184.679688 81.4375 -177.328125 C 81.6875 -174.785156 81.8125 -171.109375 81.8125 -166.296875 L 81.8125 -33.109375 C 81.8125 -27.273438 81.617188 -22.898438 81.234375 -19.984375 C 80.859375 -17.066406 79.65625 -13.703125 77.625 -9.890625 C 74.332031 -3.296875 64.566406 0 48.328125 0 C 32.347656 0 22.582031 -3.425781 19.03125 -10.28125 C 17.25 -14.082031 16.164062 -17.378906 15.78125 -20.171875 C 15.40625 -22.960938 15.21875 -27.398438 15.21875 -33.484375 Z M 77.8125 -237.640625 C 75.914062 -233.960938 72.554688 -231.363281 67.734375 -229.84375 C 62.910156 -228.320312 56.503906 -227.5625 48.515625 -227.5625 C 40.523438 -227.5625 34.117188 -228.320312 29.296875 -229.84375 C 24.484375 -231.363281 21.125 -234.023438 19.21875 -237.828125 C 17.3125 -241.640625 16.164062 -245.003906 15.78125 -247.921875 C 15.40625 -250.835938 15.21875 -255.210938 15.21875 -261.046875 C 15.21875 -266.878906 15.40625 -271.253906 15.78125 -274.171875 C 16.164062 -277.085938 17.25 -280.320312 19.03125 -283.875 C 22.582031 -290.726562 32.472656 -294.15625 48.703125 -294.15625 C 64.691406 -294.15625 74.332031 -290.726562 77.625 -283.875 C 79.65625 -280.070312 80.859375 -276.710938 81.234375 -273.796875 C 81.617188 -270.878906 81.8125 -266.5 81.8125 -260.65625 C 81.8125 -254.820312 81.617188 -250.445312 81.234375 -247.53125 C 80.859375 -244.613281 79.71875 -241.316406 77.8125 -237.640625 Z M 77.8125 -237.640625 "/></g></g></g><g fill="#ffffff" fill-opacity="1"><g transform="translate(270.693201, 364.601517)"><g><path d="M 80.671875 -173.90625 C 92.597656 -191.914062 106.929688 -200.921875 123.671875 -200.921875 C 149.546875 -200.921875 168.828125 -189.882812 181.515625 -167.8125 C 184.304688 -171.613281 187.664062 -175.609375 191.59375 -179.796875 C 195.53125 -183.984375 201.8125 -188.550781 210.4375 -193.5 C 219.0625 -198.445312 227.941406 -200.921875 237.078125 -200.921875 C 257.367188 -200.921875 274.363281 -193.117188 288.0625 -177.515625 C 301.757812 -161.910156 308.609375 -136.097656 308.609375 -100.078125 L 308.609375 -33.484375 C 308.609375 -27.648438 308.414062 -23.273438 308.03125 -20.359375 C 307.65625 -17.441406 306.453125 -14.082031 304.421875 -10.28125 C 301.128906 -3.425781 291.363281 0 275.125 0 C 259.144531 0 249.378906 -3.550781 245.828125 -10.65625 C 244.046875 -14.457031 242.960938 -17.816406 242.578125 -20.734375 C 242.203125 -23.648438 242.015625 -28.03125 242.015625 -33.875 L 242.015625 -100.453125 C 242.015625 -122.523438 234.148438 -133.5625 218.421875 -133.5625 C 209.546875 -133.5625 203.519531 -130.644531 200.34375 -124.8125 C 197.175781 -118.976562 195.59375 -110.734375 195.59375 -100.078125 L 195.59375 -33.484375 C 195.59375 -27.398438 195.398438 -22.960938 195.015625 -20.171875 C 194.640625 -17.378906 193.4375 -14.082031 191.40625 -10.28125 C 187.851562 -3.425781 177.957031 0 161.71875 0 C 145.738281 0 135.972656 -3.550781 132.421875 -10.65625 C 130.648438 -14.457031 129.570312 -17.816406 129.1875 -20.734375 C 128.8125 -23.648438 128.625 -28.03125 128.625 -33.875 L 128.625 -100.453125 C 128.625 -122.523438 120.757812 -133.5625 105.03125 -133.5625 C 89.800781 -133.5625 82.1875 -122.523438 82.1875 -100.453125 L 82.1875 -33.109375 C 82.1875 -27.273438 81.992188 -22.898438 81.609375 -19.984375 C 81.234375 -17.066406 80.035156 -13.703125 78.015625 -9.890625 C 74.203125 -3.296875 64.304688 0 48.328125 0 C 32.347656 0 22.582031 -3.425781 19.03125 -10.28125 C 17.25 -14.082031 16.164062 -17.378906 15.78125 -20.171875 C 15.40625 -22.960938 15.21875 -27.398438 15.21875 -33.484375 L 15.21875 -167.4375 C 15.21875 -173.269531 15.40625 -177.644531 15.78125 -180.5625 C 16.164062 -183.476562 17.375 -186.710938 19.40625 -190.265625 C 23.207031 -197.117188 32.210938 -200.546875 46.421875 -200.546875 C 60.628906 -200.546875 69.890625 -198.257812 74.203125 -193.6875 C 78.515625 -189.125 80.671875 -182.53125 80.671875 -173.90625 Z M 80.671875 -173.90625 "/></g></g></g><g fill="#ffffff" fill-opacity="1"><g transform="translate(594.506792, 364.601517)"><g><path d="M 145.359375 -179.234375 C 146.878906 -193.441406 156.898438 -200.546875 175.421875 -200.546875 C 185.316406 -200.546875 192.671875 -199.78125 197.484375 -198.25 C 202.304688 -196.726562 205.671875 -194.066406 207.578125 -190.265625 C 209.484375 -186.460938 210.625 -183.101562 211 -180.1875 C 211.382812 -177.269531 211.578125 -172.890625 211.578125 -167.046875 L 211.578125 -33.875 C 211.578125 -28.03125 211.382812 -23.648438 211 -20.734375 C 210.625 -17.816406 209.546875 -14.457031 207.765625 -10.65625 C 204.210938 -4.0625 195.523438 -0.765625 181.703125 -0.765625 C 167.878906 -0.765625 158.617188 -2.472656 153.921875 -5.890625 C 149.234375 -9.316406 146.507812 -14.328125 145.75 -20.921875 C 136.351562 -7.484375 120.679688 -0.765625 98.734375 -0.765625 C 76.796875 -0.765625 56.441406 -10.785156 37.671875 -30.828125 C 18.898438 -50.867188 9.515625 -74.144531 9.515625 -100.65625 C 9.515625 -127.164062 18.960938 -150.375 37.859375 -170.28125 C 56.765625 -190.195312 77.503906 -200.15625 100.078125 -200.15625 C 108.703125 -200.15625 116.566406 -198.632812 123.671875 -195.59375 C 130.773438 -192.550781 135.722656 -189.695312 138.515625 -187.03125 C 141.304688 -184.363281 143.585938 -181.765625 145.359375 -179.234375 Z M 76.109375 -100.078125 C 76.109375 -91.703125 79.40625 -84.15625 86 -77.4375 C 92.59375 -70.71875 100.582031 -67.359375 109.96875 -67.359375 C 119.351562 -67.359375 127.15625 -70.78125 133.375 -77.625 C 139.59375 -84.476562 142.703125 -92.023438 142.703125 -100.265625 C 142.703125 -108.515625 139.71875 -116.191406 133.75 -123.296875 C 127.789062 -130.398438 119.800781 -133.953125 109.78125 -133.953125 C 99.757812 -133.953125 91.640625 -130.398438 85.421875 -123.296875 C 79.210938 -116.191406 76.109375 -108.453125 76.109375 -100.078125 Z M 76.109375 -100.078125 "/></g></g></g><g fill="#ffffff" fill-opacity="1"><g transform="translate(821.290451, 364.601517)"><g><path d="M 131.65625 -133.1875 L 106.921875 -134.703125 L 106.921875 -82.1875 C 106.921875 -75.34375 108 -70.394531 110.15625 -67.34375 C 112.3125 -64.300781 116.367188 -62.78125 122.328125 -62.78125 C 128.296875 -62.78125 132.863281 -62.585938 136.03125 -62.203125 C 139.207031 -61.828125 142.570312 -60.628906 146.125 -58.609375 C 151.957031 -55.304688 154.875 -46.804688 154.875 -33.109375 C 154.875 -17.117188 151.320312 -7.351562 144.21875 -3.8125 C 140.414062 -2.03125 137.054688 -0.945312 134.140625 -0.5625 C 131.222656 -0.1875 126.972656 0 121.390625 0 C 95.003906 0 74.960938 -5.957031 61.265625 -17.875 C 47.566406 -29.800781 40.71875 -49.972656 40.71875 -78.390625 L 40.71875 -134.703125 C 35.894531 -133.941406 30.691406 -133.5625 25.109375 -133.5625 C 19.535156 -133.5625 14.90625 -135.71875 11.21875 -140.03125 C 7.539062 -144.34375 5.703125 -151.695312 5.703125 -162.09375 C 5.703125 -172.5 6.335938 -180.046875 7.609375 -184.734375 C 8.878906 -189.429688 10.65625 -192.796875 12.9375 -194.828125 C 17 -198.128906 22.070312 -199.78125 28.15625 -199.78125 L 40.71875 -198.25 L 40.71875 -237.453125 C 40.71875 -243.285156 40.90625 -247.597656 41.28125 -250.390625 C 41.664062 -253.179688 42.875 -256.222656 44.90625 -259.515625 C 48.195312 -265.859375 57.960938 -269.03125 74.203125 -269.03125 C 91.453125 -269.03125 101.726562 -264.335938 105.03125 -254.953125 C 106.289062 -250.898438 106.921875 -244.429688 106.921875 -235.546875 L 106.921875 -198.25 C 118.085938 -199.269531 126.523438 -199.78125 132.234375 -199.78125 C 137.941406 -199.78125 142.253906 -199.585938 145.171875 -199.203125 C 148.085938 -198.828125 151.445312 -197.625 155.25 -195.59375 C 161.851562 -192.289062 165.15625 -182.523438 165.15625 -166.296875 C 165.15625 -150.304688 161.726562 -140.535156 154.875 -136.984375 C 151.070312 -135.210938 147.710938 -134.132812 144.796875 -133.75 C 141.878906 -133.375 137.5 -133.1875 131.65625 -133.1875 Z M 131.65625 -133.1875 "/></g></g></g></g></g><g clip-path="url(#38a4e4a404)"><path fill="#90a093" d="M 975.429688 906.59375 C 973.5 895.234375 970.253906 884.242188 965.464844 873.765625 C 961.820312 865.765625 957.914062 857.894531 954.316406 849.859375 C 950.894531 842.210938 946.910156 835.03125 940.757812 829.148438 C 936.304688 824.890625 935.628906 819.203125 938.347656 813.628906 C 940.773438 808.664062 943.921875 804.132812 947.457031 799.941406 C 955.152344 790.765625 960.710938 780.546875 963.167969 768.820312 C 965.675781 756.832031 963.074219 747.210938 962.445312 744.976562 C 961.304688 740.863281 959.828125 737.570312 958.65625 735.304688 C 953.722656 724.925781 949.722656 720.054688 946.859375 717.550781 C 946.460938 717.195312 945.992188 716.828125 945.320312 716.136719 C 941.71875 712.554688 938.667969 706.578125 937.785156 705.308594 C 937.476562 704.875 937.367188 704.148438 936.5 704.085938 C 936.433594 705.902344 937.222656 707.476562 937.511719 709.386719 C 935.839844 707.699219 934.699219 705.933594 932.753906 704.488281 C 932.785156 705.964844 934.023438 706.449219 934.167969 707.941406 C 929.992188 704.085938 926.167969 700.34375 921.910156 697.160156 C 921.78125 697.289062 921.636719 697.402344 921.507812 697.53125 C 923.066406 699.78125 924.640625 702.046875 926.472656 704.679688 C 922.023438 701.996094 917.972656 699.554688 913.925781 697.128906 C 914.292969 698.847656 915.578125 699.683594 916.929688 701.113281 C 910.019531 698.75 903.527344 696.792969 896.71875 696.117188 C 898.371094 697.691406 900.765625 697.804688 902.515625 699.203125 C 895.125 698.863281 887.785156 698.703125 880.441406 699.539062 C 885.40625 700.503906 890.273438 701.628906 895.222656 702.558594 C 884.988281 704.953125 874.800781 707.347656 864.886719 710.671875 C 864.9375 710.867188 864.984375 711.058594 865.015625 711.25 C 867.121094 711.074219 869.242188 710.914062 871.910156 710.707031 C 863.8125 714.335938 856.757812 718.464844 850.347656 723.785156 C 845.382812 727.898438 841.078125 732.796875 835.582031 736.269531 C 835.535156 736.300781 835.597656 736.492188 835.632812 736.75 C 838.585938 736.667969 840.867188 734.566406 844.210938 733.824219 C 841.464844 737.679688 838.347656 740.605469 835.292969 744.332031 C 838.007812 743.609375 839.328125 741.730469 841.414062 740.863281 C 841.609375 742.101562 841.0625 742.773438 840.722656 743.496094 C 837.945312 749.539062 836.722656 755.933594 836.867188 762.519531 C 837.042969 770.828125 839.597656 778.425781 844.433594 785.238281 C 845.511719 786.75 846.507812 788.324219 847.328125 789.980469 C 848.691406 792.679688 848.242188 794.734375 846.042969 796.855469 C 842.714844 800.054688 842.84375 803.523438 846.523438 806.414062 C 847.746094 807.378906 848.019531 808.457031 847.570312 809.855469 C 847.261719 810.769531 846.796875 815.074219 846.460938 815.976562 C 845.914062 817.40625 845.832031 818.609375 847.085938 819.285156 L 850.703125 821.214844 C 849.625 824.554688 852.277344 827.382812 853.914062 827.753906 C 855.890625 828.21875 857.0625 829.421875 858.238281 830.964844 C 861.515625 835.304688 865.46875 838.757812 871.1875 839.273438 C 875.523438 839.65625 879.816406 839.335938 884.074219 838.242188 C 887.527344 837.359375 890.867188 836.011719 894.417969 835.511719 C 895.285156 835.382812 896.363281 834.820312 896.957031 835.542969 C 897.695312 836.445312 896.652344 837.296875 896.28125 838.132812 C 894.886719 841.183594 893.292969 844.15625 892.25 847.371094 C 891.335938 850.164062 890.273438 852.914062 888.941406 855.5625 C 885.375 862.617188 881.871094 869.703125 880.957031 877.734375 C 880.714844 879.839844 880.488281 881.929688 879.636719 883.953125 C 877.195312 889.785156 874.738281 895.617188 872.664062 901.578125 C 869.917969 909.546875 869.242188 917.789062 870.09375 926.195312 C 870.351562 928.667969 870.140625 928.714844 867.78125 928.1875 C 859.296875 926.289062 850.75 925.070312 842.027344 926.160156 C 832.320312 927.382812 824.0625 931.367188 817.570312 938.839844 C 813.203125 943.867188 808.6875 948.765625 804.140625 953.621094 C 801.601562 956.335938 801.539062 956.191406 798.324219 954.359375 C 795.769531 952.894531 793.132812 951.980469 790.53125 954.292969 C 789.921875 954.839844 789.390625 954.742188 788.683594 954.359375 C 786.5625 953.203125 785.339844 951.386719 784.492188 949.21875 C 783.6875 947.160156 782.851562 945.121094 781.050781 943.675781 C 778.0625 941.28125 773.597656 942.261719 772.085938 945.746094 C 771.683594 946.664062 771.171875 947.128906 770.207031 947.417969 C 766.65625 948.460938 765.628906 950.921875 767.539062 953.972656 C 768.117188 954.90625 768.117188 955.5 767.378906 956.300781 C 766.207031 957.570312 765.789062 959.019531 766.898438 960.59375 C 767.28125 961.121094 767.363281 961.699219 767.027344 962.328125 C 766.285156 963.691406 766.800781 964.851562 767.734375 965.894531 C 768.101562 966.296875 768.746094 966.648438 768.566406 967.226562 C 767.476562 970.84375 770.527344 973.09375 772.070312 975.214844 C 773.855469 977.6875 775.558594 980.371094 777.613281 982.683594 C 778.160156 983.292969 778.769531 983.855469 779.414062 984.355469 C 781.726562 986.171875 784.054688 987.953125 785.886719 990.347656 C 787.847656 992.917969 789.855469 995.441406 792.007812 997.851562 C 796.285156 1002.625 801.519531 1005.097656 807.867188 1002.75 C 815.835938 999.8125 824.03125 999.363281 832.386719 999.28125 C 844.707031 999.167969 856.902344 997.59375 868.953125 994.960938 C 874.304688 993.785156 879.492188 993.480469 884.652344 995.632812 C 885.214844 995.875 885.839844 995.9375 886.449219 996.082031 C 895.207031 998.238281 904.140625 999.296875 913.105469 1000.117188 C 924.433594 1001.144531 935.453125 1000.003906 946.058594 995.730469 C 954.542969 992.324219 961.210938 986.972656 964.566406 978.121094 C 965.980469 974.394531 967.394531 970.667969 969.066406 967.050781 C 974.496094 955.339844 977.292969 943.09375 977.210938 930.144531 C 977.164062 922.226562 976.792969 914.351562 975.476562 906.542969 Z M 975.429688 906.59375 " fill-opacity="1" fill-rule="nonzero"/></g><g clip-path="url(#a2239b3b00)"><g clip-path="url(#f011682f8f)"><g transform="matrix(1, 0, 0, 1, 356, 538)"><g clip-path="url(#7253f11be5)"><g clip-path="url(#86130436fa)"><g clip-path="url(#e6558f335a)"><path fill="#e49178" d="M 0.0664062 0.761719 L 100.132812 0.761719 L 100.132812 93.242188 L 0.0664062 93.242188 Z M 0.0664062 0.761719 " fill-opacity="1" fill-rule="nonzero"/></g></g></g></g></g></g><g fill="#ffffff" fill-opacity="1"><g transform="translate(827.700012, 945.738883)"><g><path d="M 17.421875 -22.390625 C 17.421875 -19.984375 18.210938 -18.113281 19.796875 -16.78125 C 21.390625 -15.445312 23.078125 -14.78125 24.859375 -14.78125 C 26.640625 -14.78125 28.304688 -15.304688 29.859375 -16.359375 C 31.421875 -17.410156 32.6875 -17.9375 33.65625 -17.9375 C 35.351562 -17.9375 37.421875 -16.429688 39.859375 -13.421875 C 41.160156 -11.785156 41.8125 -10.316406 41.8125 -9.015625 C 41.8125 -6.859375 40.253906 -4.84375 37.140625 -2.96875 C 33.910156 -0.707031 29.941406 0.421875 25.234375 0.421875 C 19.972656 0.421875 14.90625 -1.472656 10.03125 -5.265625 C 7.707031 -7.078125 5.804688 -9.5 4.328125 -12.53125 C 2.859375 -15.5625 2.125 -18.90625 2.125 -22.5625 C 2.125 -26.21875 2.859375 -29.53125 4.328125 -32.5 C 5.804688 -35.476562 7.707031 -37.875 10.03125 -39.6875 C 14.726562 -43.425781 19.742188 -45.296875 25.078125 -45.296875 C 27.222656 -45.296875 29.316406 -45 31.359375 -44.40625 C 33.398438 -43.8125 34.898438 -43.226562 35.859375 -42.65625 L 37.21875 -41.8125 C 38.238281 -41.132812 39.035156 -40.597656 39.609375 -40.203125 C 41.078125 -39.066406 41.8125 -37.773438 41.8125 -36.328125 C 41.8125 -34.878906 41.21875 -33.25 40.03125 -31.4375 C 37.988281 -28.320312 36.03125 -26.765625 34.15625 -26.765625 C 33.082031 -26.765625 31.554688 -27.390625 29.578125 -28.640625 C 28.554688 -29.597656 27.09375 -30.078125 25.1875 -30.078125 C 23.289062 -30.078125 21.519531 -29.394531 19.875 -28.03125 C 18.238281 -26.675781 17.421875 -24.796875 17.421875 -22.390625 Z M 17.421875 -22.390625 "/></g></g></g><g fill="#ffffff" fill-opacity="1"><g transform="translate(882.934482, 945.738883)"><g><path d="M 33.8125 -44.265625 C 34.894531 -43.929688 35.789062 -43.351562 36.5 -42.53125 C 37.207031 -41.707031 37.5625 -40.390625 37.5625 -38.578125 C 37.5625 -36.765625 37.019531 -34.78125 35.9375 -32.625 C 34.863281 -30.476562 33.3125 -29.40625 31.28125 -29.40625 C 30.257812 -29.40625 29.28125 -29.628906 28.34375 -30.078125 C 27.40625 -30.535156 26.171875 -30.765625 24.640625 -30.765625 C 23.109375 -30.765625 21.675781 -30.222656 20.34375 -29.140625 C 19.019531 -28.066406 18.359375 -26.765625 18.359375 -25.234375 L 18.359375 -7.390625 C 18.359375 -6.085938 18.316406 -5.109375 18.234375 -4.453125 C 18.148438 -3.804688 17.878906 -3.054688 17.421875 -2.203125 C 16.566406 -0.734375 14.359375 0 10.796875 0 C 8.078125 0 6.117188 -0.476562 4.921875 -1.4375 C 4.015625 -2.238281 3.507812 -3.457031 3.40625 -5.09375 C 3.40625 -5.664062 3.40625 -6.488281 3.40625 -7.5625 L 3.40625 -37.390625 C 3.40625 -38.691406 3.445312 -39.664062 3.53125 -40.3125 C 3.613281 -40.96875 3.851562 -41.691406 4.25 -42.484375 C 5.039062 -44.015625 7.25 -44.78125 10.875 -44.78125 C 14.28125 -44.78125 16.40625 -44.128906 17.25 -42.828125 C 17.875 -41.921875 18.1875 -40.988281 18.1875 -40.03125 C 18.46875 -40.425781 18.875 -40.90625 19.40625 -41.46875 C 19.945312 -42.039062 21.097656 -42.804688 22.859375 -43.765625 C 24.617188 -44.734375 26.160156 -45.21875 27.484375 -45.21875 C 28.816406 -45.21875 29.9375 -45.144531 30.84375 -45 C 31.75 -44.851562 32.738281 -44.609375 33.8125 -44.265625 Z M 33.8125 -44.265625 "/></g></g></g><g fill="#ffffff" fill-opacity="1"><g transform="translate(930.521106, 945.738883)"><g><path d="M 32.203125 -48.359375 L 29.65625 -48.953125 L 15.640625 -53.375 C 14.109375 -53.820312 13.113281 -54.359375 12.65625 -54.984375 C 12.207031 -55.609375 11.984375 -56.382812 11.984375 -57.3125 C 11.984375 -58.25 12.207031 -59.398438 12.65625 -60.765625 C 13.738281 -64.109375 15.128906 -65.78125 16.828125 -65.78125 C 17.054688 -65.78125 17.90625 -65.582031 19.375 -65.1875 L 33.40625 -60.84375 C 34.195312 -60.5625 34.789062 -60.335938 35.1875 -60.171875 C 36.425781 -59.546875 37.046875 -58.59375 37.046875 -57.3125 C 37.046875 -56.039062 36.820312 -54.726562 36.375 -53.375 C 35.300781 -50.03125 33.910156 -48.359375 32.203125 -48.359375 Z M 46.578125 -27.734375 C 46.578125 -24.253906 45.710938 -21.675781 43.984375 -20 C 42.253906 -18.332031 40.34375 -17.5 38.25 -17.5 L 18.109375 -17.5 C 18.109375 -15.914062 19.039062 -14.582031 20.90625 -13.5 C 22.769531 -12.425781 24.640625 -11.890625 26.515625 -11.890625 C 29.796875 -11.890625 32.375 -12.234375 34.25 -12.921875 L 35.1875 -13.25 C 36.539062 -13.875 37.671875 -14.1875 38.578125 -14.1875 C 40.390625 -14.1875 41.945312 -12.914062 43.25 -10.375 C 43.988281 -8.84375 44.359375 -7.535156 44.359375 -6.453125 C 44.359375 -1.410156 38.328125 1.109375 26.265625 1.109375 C 22.066406 1.109375 18.335938 0.382812 15.078125 -1.0625 C 11.828125 -2.507812 9.296875 -4.421875 7.484375 -6.796875 C 3.910156 -11.390625 2.125 -16.519531 2.125 -22.1875 C 2.125 -29.320312 4.429688 -35.023438 9.046875 -39.296875 C 13.671875 -43.578125 19.4375 -45.71875 26.34375 -45.71875 C 34.21875 -45.71875 40 -42.941406 43.6875 -37.390625 C 45.613281 -34.441406 46.578125 -31.222656 46.578125 -27.734375 Z M 28.640625 -25.234375 C 30.796875 -25.234375 31.875 -26.140625 31.875 -27.953125 C 31.875 -29.265625 31.375 -30.316406 30.375 -31.109375 C 29.382812 -31.898438 27.96875 -32.296875 26.125 -32.296875 C 24.289062 -32.296875 22.46875 -31.546875 20.65625 -30.046875 C 18.84375 -28.546875 17.9375 -26.941406 17.9375 -25.234375 Z M 28.640625 -25.234375 "/></g></g></g><g fill="#ffffff" fill-opacity="1"><g transform="translate(990.514051, 945.738883)"><g><path d="M 17.421875 -22.390625 C 17.421875 -19.984375 18.210938 -18.113281 19.796875 -16.78125 C 21.390625 -15.445312 23.078125 -14.78125 24.859375 -14.78125 C 26.640625 -14.78125 28.304688 -15.304688 29.859375 -16.359375 C 31.421875 -17.410156 32.6875 -17.9375 33.65625 -17.9375 C 35.351562 -17.9375 37.421875 -16.429688 39.859375 -13.421875 C 41.160156 -11.785156 41.8125 -10.316406 41.8125 -9.015625 C 41.8125 -6.859375 40.253906 -4.84375 37.140625 -2.96875 C 33.910156 -0.707031 29.941406 0.421875 25.234375 0.421875 C 19.972656 0.421875 14.90625 -1.472656 10.03125 -5.265625 C 7.707031 -7.078125 5.804688 -9.5 4.328125 -12.53125 C 2.859375 -15.5625 2.125 -18.90625 2.125 -22.5625 C 2.125 -26.21875 2.859375 -29.53125 4.328125 -32.5 C 5.804688 -35.476562 7.707031 -37.875 10.03125 -39.6875 C 14.726562 -43.425781 19.742188 -45.296875 25.078125 -45.296875 C 27.222656 -45.296875 29.316406 -45 31.359375 -44.40625 C 33.398438 -43.8125 34.898438 -43.226562 35.859375 -42.65625 L 37.21875 -41.8125 C 38.238281 -41.132812 39.035156 -40.597656 39.609375 -40.203125 C 41.078125 -39.066406 41.8125 -37.773438 41.8125 -36.328125 C 41.8125 -34.878906 41.21875 -33.25 40.03125 -31.4375 C 37.988281 -28.320312 36.03125 -26.765625 34.15625 -26.765625 C 33.082031 -26.765625 31.554688 -27.390625 29.578125 -28.640625 C 28.554688 -29.597656 27.09375 -30.078125 25.1875 -30.078125 C 23.289062 -30.078125 21.519531 -29.394531 19.875 -28.03125 C 18.238281 -26.675781 17.421875 -24.796875 17.421875 -22.390625 Z M 17.421875 -22.390625 "/></g></g></g><g fill="#ffffff" fill-opacity="1"><g transform="translate(1045.238629, 945.738883)"><g><path d="M 28.21875 -44.609375 C 33.882812 -44.609375 38.597656 -42.457031 42.359375 -38.15625 C 46.128906 -33.851562 48.015625 -28.582031 48.015625 -22.34375 L 48.015625 -7.390625 C 48.015625 -6.085938 47.972656 -5.109375 47.890625 -4.453125 C 47.804688 -3.804688 47.535156 -3.054688 47.078125 -2.203125 C 46.335938 -0.734375 44.15625 0 40.53125 0 C 37.082031 0 34.929688 -0.734375 34.078125 -2.203125 C 33.628906 -3.054688 33.359375 -3.820312 33.265625 -4.5 C 33.179688 -5.1875 33.140625 -6.207031 33.140625 -7.5625 L 33.140625 -22.4375 C 33.140625 -24.757812 32.488281 -26.570312 31.1875 -27.875 C 29.882812 -29.175781 28.226562 -29.828125 26.21875 -29.828125 C 24.207031 -29.828125 22.4375 -29.21875 20.90625 -28 C 19.375 -26.78125 18.492188 -25.40625 18.265625 -23.875 L 18.265625 -7.390625 C 18.265625 -6.085938 18.222656 -5.109375 18.140625 -4.453125 C 18.054688 -3.804688 17.789062 -3.054688 17.34375 -2.203125 C 16.601562 -0.734375 14.421875 0 10.796875 0 C 7.222656 0 5.039062 -0.765625 4.25 -2.296875 C 3.851562 -3.140625 3.613281 -3.875 3.53125 -4.5 C 3.445312 -5.125 3.40625 -6.117188 3.40625 -7.484375 L 3.40625 -58.296875 C 3.40625 -59.597656 3.445312 -60.570312 3.53125 -61.21875 C 3.613281 -61.875 3.851562 -62.597656 4.25 -63.390625 C 5.039062 -64.921875 7.25 -65.6875 10.875 -65.6875 C 14.445312 -65.6875 16.601562 -64.921875 17.34375 -63.390625 C 17.789062 -62.546875 18.054688 -61.796875 18.140625 -61.140625 C 18.222656 -60.492188 18.265625 -59.519531 18.265625 -58.21875 L 18.265625 -39.4375 C 21.097656 -42.882812 24.414062 -44.609375 28.21875 -44.609375 Z M 28.21875 -44.609375 "/></g></g></g><g fill="#ffffff" fill-opacity="1"><g transform="translate(1107.950691, 945.738883)"><g><path d="M 46.578125 -27.734375 C 46.578125 -24.253906 45.710938 -21.675781 43.984375 -20 C 42.253906 -18.332031 40.34375 -17.5 38.25 -17.5 L 18.109375 -17.5 C 18.109375 -15.914062 19.039062 -14.582031 20.90625 -13.5 C 22.769531 -12.425781 24.640625 -11.890625 26.515625 -11.890625 C 29.796875 -11.890625 32.375 -12.234375 34.25 -12.921875 L 35.1875 -13.25 C 36.539062 -13.875 37.671875 -14.1875 38.578125 -14.1875 C 40.390625 -14.1875 41.945312 -12.914062 43.25 -10.375 C 43.988281 -8.84375 44.359375 -7.535156 44.359375 -6.453125 C 44.359375 -1.410156 38.328125 1.109375 26.265625 1.109375 C 22.066406 1.109375 18.335938 0.382812 15.078125 -1.0625 C 11.828125 -2.507812 9.296875 -4.421875 7.484375 -6.796875 C 3.910156 -11.390625 2.125 -16.519531 2.125 -22.1875 C 2.125 -29.320312 4.429688 -35.023438 9.046875 -39.296875 C 13.671875 -43.578125 19.4375 -45.71875 26.34375 -45.71875 C 34.21875 -45.71875 40 -42.941406 43.6875 -37.390625 C 45.613281 -34.441406 46.578125 -31.222656 46.578125 -27.734375 Z M 28.640625 -25.234375 C 30.796875 -25.234375 31.875 -26.140625 31.875 -27.953125 C 31.875 -29.265625 31.375 -30.316406 30.375 -31.109375 C 29.382812 -31.898438 27.96875 -32.296875 26.125 -32.296875 C 24.289062 -32.296875 22.46875 -31.546875 20.65625 -30.046875 C 18.84375 -28.546875 17.9375 -26.941406 17.9375 -25.234375 Z M 28.640625 -25.234375 "/></g></g></g></svg>