<svg xmlns="http://www.w3.org/2000/svg" xmlns:xlink="http://www.w3.org/1999/xlink" width="1820" zoomAndPan="magnify" viewBox="0 0 1365 1535.999932" height="2048" preserveAspectRatio="xMidYMid meet" version="1.0"><defs><g/><clipPath id="abbd1bb8b5"><path d="M 0.839844 0 L 1294.917969 0 L 1294.917969 601 L 0.839844 601 Z M 0.839844 0 " clip-rule="nonzero"/></clipPath><clipPath id="e36fea6392"><rect x="0" width="1295" y="0" height="601"/></clipPath><clipPath id="e5eb66af0a"><path d="M 815.269531 280.527344 L 1018.066406 280.527344 L 1018.066406 484.667969 L 815.269531 484.667969 Z M 815.269531 280.527344 " clip-rule="nonzero"/></clipPath><clipPath id="c8c943fb8d"><rect x="0" width="1295" y="0" height="658"/></clipPath><clipPath id="30f9abf8b4"><path d="M 277.800781 534.292969 L 388.964844 534.292969 L 388.964844 636.660156 L 277.800781 636.660156 Z M 277.800781 534.292969 " clip-rule="nonzero"/></clipPath><clipPath id="174ededb53"><path d="M 333.210938 534.292969 C 302.609375 534.292969 277.800781 557.207031 277.800781 585.476562 C 277.800781 613.746094 302.609375 636.660156 333.210938 636.660156 C 363.8125 636.660156 388.617188 613.746094 388.617188 585.476562 C 388.617188 557.207031 363.8125 534.292969 333.210938 534.292969 Z M 333.210938 534.292969 " clip-rule="nonzero"/></clipPath><clipPath id="f6114a5145"><path d="M 0.800781 0.292969 L 111.800781 0.292969 L 111.800781 102.660156 L 0.800781 102.660156 Z M 0.800781 0.292969 " clip-rule="nonzero"/></clipPath><clipPath id="f4a9aaec5f"><path d="M 56.210938 0.292969 C 25.609375 0.292969 0.800781 23.207031 0.800781 51.476562 C 0.800781 79.746094 25.609375 102.660156 56.210938 102.660156 C 86.8125 102.660156 111.617188 79.746094 111.617188 51.476562 C 111.617188 23.207031 86.8125 0.292969 56.210938 0.292969 Z M 56.210938 0.292969 " clip-rule="nonzero"/></clipPath><clipPath id="6ee1ac562c"><rect x="0" width="112" y="0" height="103"/></clipPath></defs><g transform="matrix(1, 0, 0, 1, 45, 438)"><g clip-path="url(#c8c943fb8d)"><g clip-path="url(#abbd1bb8b5)"><g transform="matrix(1, 0, 0, 1, 0, -0.000000000000113687)"><g clip-path="url(#e36fea6392)"><g fill="#2e4a5a" fill-opacity="1"><g transform="translate(2.334093, 483.435543)"><g><path d="M 171.890625 -173.875 L 139.59375 -175.859375 L 139.59375 -107.3125 C 139.59375 -98.363281 141 -91.898438 143.8125 -87.921875 C 146.632812 -83.953125 151.9375 -81.96875 159.71875 -81.96875 C 167.5 -81.96875 173.457031 -81.71875 177.59375 -81.21875 C 181.738281 -80.726562 186.128906 -79.15625 190.765625 -76.5 C 198.390625 -72.195312 202.203125 -61.101562 202.203125 -43.21875 C 202.203125 -22.351562 197.5625 -9.601562 188.28125 -4.96875 C 183.3125 -2.644531 178.921875 -1.234375 175.109375 -0.734375 C 171.304688 -0.242188 165.765625 0 158.484375 0 C 124.035156 0 97.867188 -7.78125 79.984375 -23.34375 C 62.097656 -38.914062 53.15625 -65.25 53.15625 -102.34375 L 53.15625 -175.859375 C 46.863281 -174.867188 40.070312 -174.375 32.78125 -174.375 C 25.5 -174.375 19.457031 -177.1875 14.65625 -182.8125 C 9.851562 -188.445312 7.453125 -198.050781 7.453125 -211.625 C 7.453125 -225.207031 8.28125 -235.0625 9.9375 -241.1875 C 11.59375 -247.320312 13.910156 -251.710938 16.890625 -254.359375 C 22.191406 -258.660156 28.816406 -260.8125 36.765625 -260.8125 L 53.15625 -258.828125 L 53.15625 -310 C 53.15625 -317.613281 53.398438 -323.242188 53.890625 -326.890625 C 54.390625 -330.535156 55.96875 -334.507812 58.625 -338.8125 C 62.925781 -347.09375 75.675781 -351.234375 96.875 -351.234375 C 119.394531 -351.234375 132.804688 -345.109375 137.109375 -332.859375 C 138.765625 -327.554688 139.59375 -319.109375 139.59375 -307.515625 L 139.59375 -258.828125 C 154.164062 -260.148438 165.175781 -260.8125 172.625 -260.8125 C 180.082031 -260.8125 185.710938 -260.5625 189.515625 -260.0625 C 193.328125 -259.570312 197.71875 -258.003906 202.6875 -255.359375 C 211.300781 -251.046875 215.609375 -238.289062 215.609375 -217.09375 C 215.609375 -196.226562 211.140625 -183.476562 202.203125 -178.84375 C 197.234375 -176.53125 192.84375 -175.125 189.03125 -174.625 C 185.21875 -174.125 179.503906 -173.875 171.890625 -173.875 Z M 171.890625 -173.875 "/></g></g></g><g fill="#2e4a5a" fill-opacity="1"><g transform="translate(225.38834, 483.435543)"><g><path d="M 19.875 -218.09375 C 19.875 -225.707031 20.117188 -231.421875 20.609375 -235.234375 C 21.109375 -239.046875 22.519531 -243.429688 24.84375 -248.390625 C 29.476562 -257.003906 42.394531 -261.3125 63.59375 -261.3125 C 79.488281 -261.3125 90.75 -258.5 97.375 -252.875 C 103 -248.238281 105.976562 -241.113281 106.3125 -231.5 C 106.644531 -228.195312 106.8125 -223.394531 106.8125 -217.09375 L 106.8125 -43.21875 C 106.8125 -35.601562 106.5625 -29.890625 106.0625 -26.078125 C 105.570312 -22.273438 104 -17.890625 101.34375 -12.921875 C 97.039062 -4.304688 84.289062 0 63.09375 0 C 42.226562 0 29.476562 -4.46875 24.84375 -13.40625 C 22.519531 -18.375 21.109375 -22.679688 20.609375 -26.328125 C 20.117188 -29.972656 19.875 -35.769531 19.875 -43.71875 Z M 101.59375 -310.25 C 99.113281 -305.445312 94.722656 -302.050781 88.421875 -300.0625 C 82.128906 -298.070312 73.765625 -297.078125 63.328125 -297.078125 C 52.898438 -297.078125 44.539062 -298.070312 38.25 -300.0625 C 31.957031 -302.050781 27.566406 -305.53125 25.078125 -310.5 C 22.597656 -315.46875 21.109375 -319.851562 20.609375 -323.65625 C 20.117188 -327.46875 19.875 -333.179688 19.875 -340.796875 C 19.875 -348.421875 20.117188 -354.132812 20.609375 -357.9375 C 21.109375 -361.75 22.519531 -365.972656 24.84375 -370.609375 C 29.476562 -379.554688 42.394531 -384.03125 63.59375 -384.03125 C 84.457031 -384.03125 97.039062 -379.554688 101.34375 -370.609375 C 104 -365.640625 105.570312 -361.25 106.0625 -357.4375 C 106.5625 -353.632812 106.8125 -347.921875 106.8125 -340.296875 C 106.8125 -332.679688 106.5625 -326.96875 106.0625 -323.15625 C 105.570312 -319.351562 104.082031 -315.050781 101.59375 -310.25 Z M 101.59375 -310.25 "/></g></g></g><g fill="#2e4a5a" fill-opacity="1"><g transform="translate(352.067249, 483.435543)"><g><path d="M 105.328125 -227.03125 C 120.890625 -250.550781 139.597656 -262.3125 161.453125 -262.3125 C 195.234375 -262.3125 220.40625 -247.90625 236.96875 -219.09375 C 240.613281 -224.0625 245.003906 -229.273438 250.140625 -234.734375 C 255.273438 -240.203125 263.472656 -246.164062 274.734375 -252.625 C 285.992188 -259.082031 297.582031 -262.3125 309.5 -262.3125 C 336 -262.3125 358.191406 -252.125 376.078125 -231.75 C 393.960938 -211.382812 402.90625 -177.6875 402.90625 -130.65625 L 402.90625 -43.71875 C 402.90625 -36.101562 402.65625 -30.390625 402.15625 -26.578125 C 401.65625 -22.765625 400.082031 -18.375 397.4375 -13.40625 C 393.132812 -4.46875 380.382812 0 359.1875 0 C 338.320312 0 325.570312 -4.632812 320.9375 -13.90625 C 318.613281 -18.875 317.203125 -23.257812 316.703125 -27.0625 C 316.210938 -30.875 315.96875 -36.59375 315.96875 -44.21875 L 315.96875 -131.15625 C 315.96875 -159.96875 305.695312 -174.375 285.15625 -174.375 C 273.570312 -174.375 265.707031 -170.5625 261.5625 -162.9375 C 257.425781 -155.320312 255.359375 -144.5625 255.359375 -130.65625 L 255.359375 -43.71875 C 255.359375 -35.769531 255.109375 -29.972656 254.609375 -26.328125 C 254.109375 -22.679688 252.535156 -18.375 249.890625 -13.40625 C 245.253906 -4.46875 232.335938 0 211.140625 0 C 190.273438 0 177.523438 -4.632812 172.890625 -13.90625 C 170.566406 -18.875 169.15625 -23.257812 168.65625 -27.0625 C 168.164062 -30.875 167.921875 -36.59375 167.921875 -44.21875 L 167.921875 -131.15625 C 167.921875 -159.96875 157.648438 -174.375 137.109375 -174.375 C 117.242188 -174.375 107.3125 -159.96875 107.3125 -131.15625 L 107.3125 -43.21875 C 107.3125 -35.601562 107.0625 -29.890625 106.5625 -26.078125 C 106.0625 -22.273438 104.488281 -17.890625 101.84375 -12.921875 C 96.875 -4.304688 83.957031 0 63.09375 0 C 42.226562 0 29.476562 -4.46875 24.84375 -13.40625 C 22.519531 -18.375 21.109375 -22.679688 20.609375 -26.328125 C 20.117188 -29.972656 19.875 -35.769531 19.875 -43.71875 L 19.875 -218.59375 C 19.875 -226.207031 20.117188 -231.914062 20.609375 -235.71875 C 21.109375 -239.53125 22.6875 -243.753906 25.34375 -248.390625 C 30.300781 -257.335938 42.054688 -261.8125 60.609375 -261.8125 C 79.160156 -261.8125 91.25 -258.828125 96.875 -252.859375 C 102.507812 -246.898438 105.328125 -238.289062 105.328125 -227.03125 Z M 105.328125 -227.03125 "/></g></g></g><g fill="#2e4a5a" fill-opacity="1"><g transform="translate(774.827043, 483.435543)"><g><path d="M 189.78125 -233.984375 C 191.757812 -252.535156 204.835938 -261.8125 229.015625 -261.8125 C 241.929688 -261.8125 251.535156 -260.816406 257.828125 -258.828125 C 264.128906 -256.835938 268.519531 -253.359375 271 -248.390625 C 273.488281 -243.429688 274.976562 -239.046875 275.46875 -235.234375 C 275.96875 -231.421875 276.21875 -225.707031 276.21875 -218.09375 L 276.21875 -44.21875 C 276.21875 -36.59375 275.96875 -30.875 275.46875 -27.0625 C 274.976562 -23.257812 273.570312 -18.875 271.25 -13.90625 C 266.613281 -5.300781 255.269531 -1 237.21875 -1 C 219.164062 -1 207.078125 -3.234375 200.953125 -7.703125 C 194.828125 -12.171875 191.265625 -18.710938 190.265625 -27.328125 C 178.015625 -9.773438 157.566406 -1 128.921875 -1 C 100.273438 -1 73.695312 -14.078125 49.1875 -40.234375 C 24.675781 -66.398438 12.421875 -96.785156 12.421875 -131.390625 C 12.421875 -166.003906 24.753906 -196.3125 49.421875 -222.3125 C 74.097656 -248.3125 101.175781 -261.3125 130.65625 -261.3125 C 141.914062 -261.3125 152.179688 -259.320312 161.453125 -255.34375 C 170.734375 -251.375 177.191406 -247.648438 180.828125 -244.171875 C 184.472656 -240.691406 187.457031 -237.296875 189.78125 -233.984375 Z M 99.359375 -130.65625 C 99.359375 -119.726562 103.660156 -109.875 112.265625 -101.09375 C 120.878906 -92.320312 131.3125 -87.9375 143.5625 -87.9375 C 155.820312 -87.9375 166.007812 -92.40625 174.125 -101.34375 C 182.238281 -110.289062 186.296875 -120.144531 186.296875 -130.90625 C 186.296875 -141.664062 182.40625 -151.679688 174.625 -160.953125 C 166.84375 -170.234375 156.410156 -174.875 143.328125 -174.875 C 130.242188 -174.875 119.644531 -170.234375 111.53125 -160.953125 C 103.414062 -151.679688 99.359375 -141.582031 99.359375 -130.65625 Z M 99.359375 -130.65625 "/></g></g></g><g fill="#2e4a5a" fill-opacity="1"><g transform="translate(1070.907996, 483.435543)"><g><path d="M 171.890625 -173.875 L 139.59375 -175.859375 L 139.59375 -107.3125 C 139.59375 -98.363281 141 -91.898438 143.8125 -87.921875 C 146.632812 -83.953125 151.9375 -81.96875 159.71875 -81.96875 C 167.5 -81.96875 173.457031 -81.71875 177.59375 -81.21875 C 181.738281 -80.726562 186.128906 -79.15625 190.765625 -76.5 C 198.390625 -72.195312 202.203125 -61.101562 202.203125 -43.21875 C 202.203125 -22.351562 197.5625 -9.601562 188.28125 -4.96875 C 183.3125 -2.644531 178.921875 -1.234375 175.109375 -0.734375 C 171.304688 -0.242188 165.765625 0 158.484375 0 C 124.035156 0 97.867188 -7.78125 79.984375 -23.34375 C 62.097656 -38.914062 53.15625 -65.25 53.15625 -102.34375 L 53.15625 -175.859375 C 46.863281 -174.867188 40.070312 -174.375 32.78125 -174.375 C 25.5 -174.375 19.457031 -177.1875 14.65625 -182.8125 C 9.851562 -188.445312 7.453125 -198.050781 7.453125 -211.625 C 7.453125 -225.207031 8.28125 -235.0625 9.9375 -241.1875 C 11.59375 -247.320312 13.910156 -251.710938 16.890625 -254.359375 C 22.191406 -258.660156 28.816406 -260.8125 36.765625 -260.8125 L 53.15625 -258.828125 L 53.15625 -310 C 53.15625 -317.613281 53.398438 -323.242188 53.890625 -326.890625 C 54.390625 -330.535156 55.96875 -334.507812 58.625 -338.8125 C 62.925781 -347.09375 75.675781 -351.234375 96.875 -351.234375 C 119.394531 -351.234375 132.804688 -345.109375 137.109375 -332.859375 C 138.765625 -327.554688 139.59375 -319.109375 139.59375 -307.515625 L 139.59375 -258.828125 C 154.164062 -260.148438 165.175781 -260.8125 172.625 -260.8125 C 180.082031 -260.8125 185.710938 -260.5625 189.515625 -260.0625 C 193.328125 -259.570312 197.71875 -258.003906 202.6875 -255.359375 C 211.300781 -251.046875 215.609375 -238.289062 215.609375 -217.09375 C 215.609375 -196.226562 211.140625 -183.476562 202.203125 -178.84375 C 197.234375 -176.53125 192.84375 -175.125 189.03125 -174.625 C 185.21875 -174.125 179.503906 -173.875 171.890625 -173.875 Z M 171.890625 -173.875 "/></g></g></g></g></g></g><g clip-path="url(#e5eb66af0a)"><path fill="#ffffff" d="M 1016.027344 538.359375 C 1013.664062 524.445312 1009.6875 510.980469 1003.824219 498.148438 C 999.355469 488.347656 994.574219 478.703125 990.164062 468.863281 C 985.972656 459.496094 981.09375 450.699219 973.554688 443.496094 C 968.101562 438.277344 967.277344 431.3125 970.601562 424.484375 C 973.574219 418.402344 977.429688 412.851562 981.761719 407.714844 C 991.1875 396.476562 997.996094 383.960938 1001.007812 369.59375 C 1004.078125 354.910156 1000.890625 343.121094 1000.125 340.386719 C 998.726562 335.347656 996.914062 331.3125 995.480469 328.535156 C 989.4375 315.824219 984.535156 309.859375 981.03125 306.789062 C 980.539062 306.355469 979.96875 305.902344 979.144531 305.058594 C 974.734375 300.667969 970.996094 293.347656 969.914062 291.792969 C 969.539062 291.261719 969.402344 290.375 968.339844 290.296875 C 968.257812 292.519531 969.222656 294.449219 969.578125 296.792969 C 967.53125 294.722656 966.132812 292.558594 963.753906 290.789062 C 963.792969 292.597656 965.308594 293.1875 965.484375 295.019531 C 960.367188 290.296875 955.683594 285.710938 950.46875 281.8125 C 950.308594 281.972656 950.132812 282.109375 949.976562 282.265625 C 951.886719 285.023438 953.8125 287.796875 956.058594 291.023438 C 950.605469 287.738281 945.644531 284.746094 940.6875 281.773438 C 941.140625 283.878906 942.714844 284.902344 944.367188 286.65625 C 935.902344 283.761719 927.953125 281.359375 919.609375 280.535156 C 921.636719 282.464844 924.566406 282.601562 926.710938 284.3125 C 917.660156 283.898438 908.664062 283.703125 899.671875 284.726562 C 905.753906 285.90625 911.714844 287.285156 917.777344 288.425781 C 905.242188 291.359375 892.761719 294.292969 880.621094 298.367188 C 880.679688 298.601562 880.738281 298.839844 880.777344 299.074219 C 883.355469 298.859375 885.953125 298.660156 889.21875 298.40625 C 879.300781 302.851562 870.660156 307.910156 862.808594 314.425781 C 856.726562 319.464844 851.453125 325.464844 844.722656 329.71875 C 844.660156 329.757812 844.742188 329.992188 844.78125 330.308594 C 848.402344 330.210938 851.195312 327.632812 855.289062 326.726562 C 851.925781 331.449219 848.105469 335.03125 844.367188 339.597656 C 847.691406 338.710938 849.304688 336.410156 851.863281 335.347656 C 852.101562 336.863281 851.433594 337.6875 851.019531 338.574219 C 847.613281 345.972656 846.117188 353.808594 846.296875 361.875 C 846.511719 372.050781 849.640625 381.359375 855.566406 389.707031 C 856.882812 391.554688 858.105469 393.484375 859.109375 395.511719 C 860.78125 398.820312 860.230469 401.335938 857.535156 403.933594 C 853.460938 407.851562 853.617188 412.101562 858.125 415.644531 C 859.621094 416.828125 859.953125 418.144531 859.402344 419.859375 C 859.027344 420.980469 858.457031 426.253906 858.046875 427.355469 C 857.375 429.109375 857.277344 430.582031 858.8125 431.410156 L 863.242188 433.773438 C 861.921875 437.867188 865.167969 441.328125 867.175781 441.78125 C 869.597656 442.351562 871.035156 443.828125 872.472656 445.71875 C 876.484375 451.03125 881.328125 455.265625 888.335938 455.894531 C 893.648438 456.367188 898.902344 455.972656 904.117188 454.632812 C 908.351562 453.550781 912.445312 451.898438 916.792969 451.289062 C 917.855469 451.132812 919.175781 450.441406 919.902344 451.328125 C 920.808594 452.429688 919.527344 453.472656 919.078125 454.496094 C 917.363281 458.234375 915.414062 461.878906 914.136719 465.8125 C 913.015625 469.238281 911.714844 472.601562 910.082031 475.851562 C 905.714844 484.492188 901.421875 493.171875 900.300781 503.011719 C 900.003906 505.589844 899.730469 508.148438 898.6875 510.628906 C 895.695312 517.773438 892.683594 524.914062 890.144531 532.21875 C 886.78125 541.980469 885.953125 552.074219 886.996094 562.371094 C 887.3125 565.398438 887.054688 565.460938 884.160156 564.808594 C 873.769531 562.488281 863.300781 560.992188 852.613281 562.328125 C 840.726562 563.824219 830.609375 568.707031 822.660156 577.859375 C 817.304688 584.019531 811.773438 590.019531 806.203125 595.964844 C 803.09375 599.292969 803.015625 599.113281 799.082031 596.871094 C 795.949219 595.078125 792.722656 593.957031 789.535156 596.792969 C 788.785156 597.460938 788.136719 597.34375 787.269531 596.871094 C 784.671875 595.453125 783.175781 593.230469 782.132812 590.574219 C 781.152344 588.054688 780.128906 585.554688 777.921875 583.78125 C 774.261719 580.851562 768.789062 582.050781 766.941406 586.320312 C 766.449219 587.441406 765.820312 588.015625 764.636719 588.367188 C 760.289062 589.648438 759.027344 592.660156 761.371094 596.398438 C 762.078125 597.539062 762.078125 598.269531 761.175781 599.25 C 759.738281 600.804688 759.226562 602.578125 760.582031 604.507812 C 761.054688 605.15625 761.15625 605.863281 760.742188 606.632812 C 759.835938 608.304688 760.464844 609.722656 761.605469 611 C 762.058594 611.492188 762.847656 611.925781 762.628906 612.636719 C 761.292969 617.0625 765.03125 619.820312 766.921875 622.417969 C 769.105469 625.449219 771.191406 628.734375 773.710938 631.566406 C 774.378906 632.316406 775.128906 633.003906 775.914062 633.613281 C 778.75 635.839844 781.601562 638.023438 783.847656 640.957031 C 786.246094 644.105469 788.707031 647.195312 791.34375 650.148438 C 796.582031 655.992188 802.996094 659.023438 810.769531 656.148438 C 820.53125 652.546875 830.570312 651.996094 840.804688 651.898438 C 855.898438 651.761719 870.835938 649.832031 885.597656 646.605469 C 892.152344 645.167969 898.507812 644.792969 904.828125 647.429688 C 905.515625 647.726562 906.285156 647.804688 907.03125 647.980469 C 917.757812 650.621094 928.699219 651.917969 939.683594 652.921875 C 953.558594 654.183594 967.058594 652.785156 980.046875 647.550781 C 990.441406 643.378906 998.609375 636.824219 1002.722656 625.980469 C 1004.453125 621.414062 1006.183594 616.847656 1008.230469 612.417969 C 1014.882812 598.070312 1018.308594 583.074219 1018.210938 567.210938 C 1018.152344 557.507812 1017.699219 547.863281 1016.085938 538.300781 Z M 1016.027344 538.359375 " fill-opacity="1" fill-rule="nonzero"/></g></g></g><g clip-path="url(#30f9abf8b4)"><g clip-path="url(#174ededb53)"><g transform="matrix(1, 0, 0, 1, 277, 534)"><g clip-path="url(#6ee1ac562c)"><g clip-path="url(#f6114a5145)"><g clip-path="url(#f4a9aaec5f)"><path fill="#e49178" d="M 0.800781 0.292969 L 111.566406 0.292969 L 111.566406 102.660156 L 0.800781 102.660156 Z M 0.800781 0.292969 " fill-opacity="1" fill-rule="nonzero"/></g></g></g></g></g></g></svg>