<svg xmlns="http://www.w3.org/2000/svg" xmlns:xlink="http://www.w3.org/1999/xlink" width="1820" zoomAndPan="magnify" viewBox="0 0 1365 1535.999932" height="2048" preserveAspectRatio="xMidYMid meet" version="1.0"><defs><g/><clipPath id="f51f3e420b"><path d="M 195.699219 484.742188 L 285.316406 484.742188 L 285.316406 574.355469 L 195.699219 574.355469 Z M 195.699219 484.742188 " clip-rule="nonzero"/></clipPath><clipPath id="787f6cf3f8"><path d="M 240.507812 484.742188 C 215.761719 484.742188 195.699219 504.800781 195.699219 529.550781 C 195.699219 554.296875 215.761719 574.355469 240.507812 574.355469 C 265.253906 574.355469 285.316406 554.296875 285.316406 529.550781 C 285.316406 504.800781 265.253906 484.742188 240.507812 484.742188 Z M 240.507812 484.742188 " clip-rule="nonzero"/></clipPath><clipPath id="ff85f69c49"><path d="M 0.699219 0.742188 L 90.316406 0.742188 L 90.316406 90.355469 L 0.699219 90.355469 Z M 0.699219 0.742188 " clip-rule="nonzero"/></clipPath><clipPath id="8235c41b98"><path d="M 45.507812 0.742188 C 20.761719 0.742188 0.699219 20.800781 0.699219 45.550781 C 0.699219 70.296875 20.761719 90.355469 45.507812 90.355469 C 70.253906 90.355469 90.316406 70.296875 90.316406 45.550781 C 90.316406 20.800781 70.253906 0.742188 45.507812 0.742188 Z M 45.507812 0.742188 " clip-rule="nonzero"/></clipPath><clipPath id="0b97627d9a"><rect x="0" width="91" y="0" height="91"/></clipPath><clipPath id="f21d28e5e9"><path d="M 0.335938 0.5 L 1230.765625 0.5 L 1230.765625 1180.238281 L 0.335938 1180.238281 Z M 0.335938 0.5 " clip-rule="nonzero"/></clipPath><clipPath id="9959e3f2b6"><path d="M 64.320312 0.5 L 1166.679688 0.5 C 1183.648438 0.5 1199.925781 7.242188 1211.921875 19.242188 C 1223.921875 31.238281 1230.664062 47.515625 1230.664062 64.484375 L 1230.664062 1116.253906 C 1230.664062 1133.222656 1223.921875 1149.496094 1211.921875 1161.496094 C 1199.925781 1173.496094 1183.648438 1180.238281 1166.679688 1180.238281 L 64.320312 1180.238281 C 47.351562 1180.238281 31.074219 1173.496094 19.078125 1161.496094 C 7.078125 1149.496094 0.335938 1133.222656 0.335938 1116.253906 L 0.335938 64.484375 C 0.335938 47.515625 7.078125 31.238281 19.078125 19.242188 C 31.074219 7.242188 47.351562 0.5 64.320312 0.5 Z M 64.320312 0.5 " clip-rule="nonzero"/></clipPath><clipPath id="10006d4355"><path d="M 0.335938 0.5 L 1230.679688 0.5 L 1230.679688 1180.238281 L 0.335938 1180.238281 Z M 0.335938 0.5 " clip-rule="nonzero"/></clipPath><clipPath id="c158236708"><path d="M 64.320312 0.5 L 1166.679688 0.5 C 1183.648438 0.5 1199.925781 7.242188 1211.921875 19.242188 C 1223.921875 31.238281 1230.664062 47.515625 1230.664062 64.484375 L 1230.664062 1116.253906 C 1230.664062 1133.222656 1223.921875 1149.496094 1211.921875 1161.496094 C 1199.925781 1173.496094 1183.648438 1180.238281 1166.679688 1180.238281 L 64.320312 1180.238281 C 47.351562 1180.238281 31.074219 1173.496094 19.078125 1161.496094 C 7.078125 1149.496094 0.335938 1133.222656 0.335938 1116.253906 L 0.335938 64.484375 C 0.335938 47.515625 7.078125 31.238281 19.078125 19.242188 C 31.074219 7.242188 47.351562 0.5 64.320312 0.5 Z M 64.320312 0.5 " clip-rule="nonzero"/></clipPath><clipPath id="098d5a74ef"><rect x="0" width="1231" y="0" height="1181"/></clipPath><clipPath id="00066958e1"><rect x="0" width="1147" y="0" height="458"/></clipPath><clipPath id="86346adc10"><path d="M 671.558594 560.136719 L 837.617188 560.136719 L 837.617188 727.003906 L 671.558594 727.003906 Z M 671.558594 560.136719 " clip-rule="nonzero"/></clipPath><clipPath id="3deab43b53"><path d="M 214.785156 412.1875 L 315 412.1875 L 315 504.667969 L 214.785156 504.667969 Z M 214.785156 412.1875 " clip-rule="nonzero"/></clipPath><clipPath id="7ecc40a5a8"><path d="M 264.84375 412.1875 C 237.195312 412.1875 214.785156 432.886719 214.785156 458.425781 C 214.785156 483.964844 237.195312 504.667969 264.84375 504.667969 C 292.488281 504.667969 314.898438 483.964844 314.898438 458.425781 C 314.898438 432.886719 292.488281 412.1875 264.84375 412.1875 Z M 264.84375 412.1875 " clip-rule="nonzero"/></clipPath><clipPath id="8e5ae56cb0"><path d="M 0.785156 0.1875 L 101 0.1875 L 101 92.667969 L 0.785156 92.667969 Z M 0.785156 0.1875 " clip-rule="nonzero"/></clipPath><clipPath id="6bae556f06"><path d="M 50.84375 0.1875 C 23.195312 0.1875 0.785156 20.886719 0.785156 46.425781 C 0.785156 71.964844 23.195312 92.667969 50.84375 92.667969 C 78.488281 92.667969 100.898438 71.964844 100.898438 46.425781 C 100.898438 20.886719 78.488281 0.1875 50.84375 0.1875 Z M 50.84375 0.1875 " clip-rule="nonzero"/></clipPath><clipPath id="aeb8bf6b30"><rect x="0" width="101" y="0" height="93"/></clipPath><clipPath id="d8cb1c4311"><rect x="0" width="1231" y="0" height="1181"/></clipPath></defs><g transform="matrix(1, 0, 0, 1, 67, 136)"><g clip-path="url(#d8cb1c4311)"><g clip-path="url(#f51f3e420b)"><g clip-path="url(#787f6cf3f8)"><g transform="matrix(1, 0, 0, 1, 195, 484)"><g clip-path="url(#0b97627d9a)"><g clip-path="url(#ff85f69c49)"><g clip-path="url(#8235c41b98)"><path fill="#ffffff" d="M 0.699219 0.742188 L 90.316406 0.742188 L 90.316406 90.355469 L 0.699219 90.355469 Z M 0.699219 0.742188 " fill-opacity="1" fill-rule="nonzero"/></g></g></g></g></g></g><g clip-path="url(#f21d28e5e9)"><g clip-path="url(#9959e3f2b6)"><g transform="matrix(1, 0, 0, 1, -0.000000000000014211, -0.000000000000113687)"><g clip-path="url(#098d5a74ef)"><g clip-path="url(#10006d4355)"><g clip-path="url(#c158236708)"><path fill="#90a093" d="M 0.335938 0.5 L 1230.765625 0.5 L 1230.765625 1180.238281 L 0.335938 1180.238281 Z M 0.335938 0.5 " fill-opacity="1" fill-rule="nonzero"/></g></g></g></g></g></g><g transform="matrix(1, 0, 0, 1, 44, 348)"><g clip-path="url(#00066958e1)"><g fill="#ffffff" fill-opacity="1"><g transform="translate(0.314733, 364.601473)"><g><path d="M 131.65625 -133.1875 L 106.921875 -134.703125 L 106.921875 -82.1875 C 106.921875 -75.34375 108 -70.394531 110.15625 -67.34375 C 112.3125 -64.300781 116.367188 -62.78125 122.328125 -62.78125 C 128.296875 -62.78125 132.863281 -62.585938 136.03125 -62.203125 C 139.207031 -61.828125 142.570312 -60.628906 146.125 -58.609375 C 151.957031 -55.304688 154.875 -46.804688 154.875 -33.109375 C 154.875 -17.117188 151.320312 -7.351562 144.21875 -3.8125 C 140.414062 -2.03125 137.054688 -0.945312 134.140625 -0.5625 C 131.222656 -0.1875 126.972656 0 121.390625 0 C 95.003906 0 74.960938 -5.957031 61.265625 -17.875 C 47.566406 -29.800781 40.71875 -49.972656 40.71875 -78.390625 L 40.71875 -134.703125 C 35.894531 -133.941406 30.691406 -133.5625 25.109375 -133.5625 C 19.535156 -133.5625 14.90625 -135.71875 11.21875 -140.03125 C 7.539062 -144.34375 5.703125 -151.695312 5.703125 -162.09375 C 5.703125 -172.5 6.335938 -180.046875 7.609375 -184.734375 C 8.878906 -189.429688 10.65625 -192.796875 12.9375 -194.828125 C 17 -198.128906 22.070312 -199.78125 28.15625 -199.78125 L 40.71875 -198.25 L 40.71875 -237.453125 C 40.71875 -243.285156 40.90625 -247.597656 41.28125 -250.390625 C 41.664062 -253.179688 42.875 -256.222656 44.90625 -259.515625 C 48.195312 -265.859375 57.960938 -269.03125 74.203125 -269.03125 C 91.453125 -269.03125 101.726562 -264.335938 105.03125 -254.953125 C 106.289062 -250.898438 106.921875 -244.429688 106.921875 -235.546875 L 106.921875 -198.25 C 118.085938 -199.269531 126.523438 -199.78125 132.234375 -199.78125 C 137.941406 -199.78125 142.253906 -199.585938 145.171875 -199.203125 C 148.085938 -198.828125 151.445312 -197.625 155.25 -195.59375 C 161.851562 -192.289062 165.15625 -182.523438 165.15625 -166.296875 C 165.15625 -150.304688 161.726562 -140.535156 154.875 -136.984375 C 151.070312 -135.210938 147.710938 -134.132812 144.796875 -133.75 C 141.878906 -133.375 137.5 -133.1875 131.65625 -133.1875 Z M 131.65625 -133.1875 "/></g></g></g><g fill="#ffffff" fill-opacity="1"><g transform="translate(171.163478, 364.601473)"><g><path d="M 15.21875 -167.046875 C 15.21875 -172.890625 15.40625 -177.269531 15.78125 -180.1875 C 16.164062 -183.101562 17.25 -186.460938 19.03125 -190.265625 C 22.582031 -196.859375 32.472656 -200.15625 48.703125 -200.15625 C 60.878906 -200.15625 69.503906 -198 74.578125 -193.6875 C 78.890625 -190.132812 81.175781 -184.679688 81.4375 -177.328125 C 81.6875 -174.785156 81.8125 -171.109375 81.8125 -166.296875 L 81.8125 -33.109375 C 81.8125 -27.273438 81.617188 -22.898438 81.234375 -19.984375 C 80.859375 -17.066406 79.65625 -13.703125 77.625 -9.890625 C 74.332031 -3.296875 64.566406 0 48.328125 0 C 32.347656 0 22.582031 -3.425781 19.03125 -10.28125 C 17.25 -14.082031 16.164062 -17.378906 15.78125 -20.171875 C 15.40625 -22.960938 15.21875 -27.398438 15.21875 -33.484375 Z M 77.8125 -237.640625 C 75.914062 -233.960938 72.554688 -231.363281 67.734375 -229.84375 C 62.910156 -228.320312 56.503906 -227.5625 48.515625 -227.5625 C 40.523438 -227.5625 34.117188 -228.320312 29.296875 -229.84375 C 24.484375 -231.363281 21.125 -234.023438 19.21875 -237.828125 C 17.3125 -241.640625 16.164062 -245.003906 15.78125 -247.921875 C 15.40625 -250.835938 15.21875 -255.210938 15.21875 -261.046875 C 15.21875 -266.878906 15.40625 -271.253906 15.78125 -274.171875 C 16.164062 -277.085938 17.25 -280.320312 19.03125 -283.875 C 22.582031 -290.726562 32.472656 -294.15625 48.703125 -294.15625 C 64.691406 -294.15625 74.332031 -290.726562 77.625 -283.875 C 79.65625 -280.070312 80.859375 -276.710938 81.234375 -273.796875 C 81.617188 -270.878906 81.8125 -266.5 81.8125 -260.65625 C 81.8125 -254.820312 81.617188 -250.445312 81.234375 -247.53125 C 80.859375 -244.613281 79.71875 -241.316406 77.8125 -237.640625 Z M 77.8125 -237.640625 "/></g></g></g><g fill="#ffffff" fill-opacity="1"><g transform="translate(268.1934, 364.601473)"><g><path d="M 80.671875 -173.90625 C 92.597656 -191.914062 106.929688 -200.921875 123.671875 -200.921875 C 149.546875 -200.921875 168.828125 -189.882812 181.515625 -167.8125 C 184.304688 -171.613281 187.664062 -175.609375 191.59375 -179.796875 C 195.53125 -183.984375 201.8125 -188.550781 210.4375 -193.5 C 219.0625 -198.445312 227.941406 -200.921875 237.078125 -200.921875 C 257.367188 -200.921875 274.363281 -193.117188 288.0625 -177.515625 C 301.757812 -161.910156 308.609375 -136.097656 308.609375 -100.078125 L 308.609375 -33.484375 C 308.609375 -27.648438 308.414062 -23.273438 308.03125 -20.359375 C 307.65625 -17.441406 306.453125 -14.082031 304.421875 -10.28125 C 301.128906 -3.425781 291.363281 0 275.125 0 C 259.144531 0 249.378906 -3.550781 245.828125 -10.65625 C 244.046875 -14.457031 242.960938 -17.816406 242.578125 -20.734375 C 242.203125 -23.648438 242.015625 -28.03125 242.015625 -33.875 L 242.015625 -100.453125 C 242.015625 -122.523438 234.148438 -133.5625 218.421875 -133.5625 C 209.546875 -133.5625 203.519531 -130.644531 200.34375 -124.8125 C 197.175781 -118.976562 195.59375 -110.734375 195.59375 -100.078125 L 195.59375 -33.484375 C 195.59375 -27.398438 195.398438 -22.960938 195.015625 -20.171875 C 194.640625 -17.378906 193.4375 -14.082031 191.40625 -10.28125 C 187.851562 -3.425781 177.957031 0 161.71875 0 C 145.738281 0 135.972656 -3.550781 132.421875 -10.65625 C 130.648438 -14.457031 129.570312 -17.816406 129.1875 -20.734375 C 128.8125 -23.648438 128.625 -28.03125 128.625 -33.875 L 128.625 -100.453125 C 128.625 -122.523438 120.757812 -133.5625 105.03125 -133.5625 C 89.800781 -133.5625 82.1875 -122.523438 82.1875 -100.453125 L 82.1875 -33.109375 C 82.1875 -27.273438 81.992188 -22.898438 81.609375 -19.984375 C 81.234375 -17.066406 80.035156 -13.703125 78.015625 -9.890625 C 74.203125 -3.296875 64.304688 0 48.328125 0 C 32.347656 0 22.582031 -3.425781 19.03125 -10.28125 C 17.25 -14.082031 16.164062 -17.378906 15.78125 -20.171875 C 15.40625 -22.960938 15.21875 -27.398438 15.21875 -33.484375 L 15.21875 -167.4375 C 15.21875 -173.269531 15.40625 -177.644531 15.78125 -180.5625 C 16.164062 -183.476562 17.375 -186.710938 19.40625 -190.265625 C 23.207031 -197.117188 32.210938 -200.546875 46.421875 -200.546875 C 60.628906 -200.546875 69.890625 -198.257812 74.203125 -193.6875 C 78.515625 -189.125 80.671875 -182.53125 80.671875 -173.90625 Z M 80.671875 -173.90625 "/></g></g></g><g fill="#ffffff" fill-opacity="1"><g transform="translate(592.006956, 364.601473)"><g><path d="M 145.359375 -179.234375 C 146.878906 -193.441406 156.898438 -200.546875 175.421875 -200.546875 C 185.316406 -200.546875 192.671875 -199.78125 197.484375 -198.25 C 202.304688 -196.726562 205.671875 -194.066406 207.578125 -190.265625 C 209.484375 -186.460938 210.625 -183.101562 211 -180.1875 C 211.382812 -177.269531 211.578125 -172.890625 211.578125 -167.046875 L 211.578125 -33.875 C 211.578125 -28.03125 211.382812 -23.648438 211 -20.734375 C 210.625 -17.816406 209.546875 -14.457031 207.765625 -10.65625 C 204.210938 -4.0625 195.523438 -0.765625 181.703125 -0.765625 C 167.878906 -0.765625 158.617188 -2.472656 153.921875 -5.890625 C 149.234375 -9.316406 146.507812 -14.328125 145.75 -20.921875 C 136.351562 -7.484375 120.679688 -0.765625 98.734375 -0.765625 C 76.796875 -0.765625 56.441406 -10.785156 37.671875 -30.828125 C 18.898438 -50.867188 9.515625 -74.144531 9.515625 -100.65625 C 9.515625 -127.164062 18.960938 -150.375 37.859375 -170.28125 C 56.765625 -190.195312 77.503906 -200.15625 100.078125 -200.15625 C 108.703125 -200.15625 116.566406 -198.632812 123.671875 -195.59375 C 130.773438 -192.550781 135.722656 -189.695312 138.515625 -187.03125 C 141.304688 -184.363281 143.585938 -181.765625 145.359375 -179.234375 Z M 76.109375 -100.078125 C 76.109375 -91.703125 79.40625 -84.15625 86 -77.4375 C 92.59375 -70.71875 100.582031 -67.359375 109.96875 -67.359375 C 119.351562 -67.359375 127.15625 -70.78125 133.375 -77.625 C 139.59375 -84.476562 142.703125 -92.023438 142.703125 -100.265625 C 142.703125 -108.515625 139.71875 -116.191406 133.75 -123.296875 C 127.789062 -130.398438 119.800781 -133.953125 109.78125 -133.953125 C 99.757812 -133.953125 91.640625 -130.398438 85.421875 -123.296875 C 79.210938 -116.191406 76.109375 -108.453125 76.109375 -100.078125 Z M 76.109375 -100.078125 "/></g></g></g><g fill="#ffffff" fill-opacity="1"><g transform="translate(818.79059, 364.601473)"><g><path d="M 80.671875 -173.90625 C 92.597656 -191.914062 106.929688 -200.921875 123.671875 -200.921875 C 149.546875 -200.921875 168.828125 -189.882812 181.515625 -167.8125 C 184.304688 -171.613281 187.664062 -175.609375 191.59375 -179.796875 C 195.53125 -183.984375 201.8125 -188.550781 210.4375 -193.5 C 219.0625 -198.445312 227.941406 -200.921875 237.078125 -200.921875 C 257.367188 -200.921875 274.363281 -193.117188 288.0625 -177.515625 C 301.757812 -161.910156 308.609375 -136.097656 308.609375 -100.078125 L 308.609375 -33.484375 C 308.609375 -27.648438 308.414062 -23.273438 308.03125 -20.359375 C 307.65625 -17.441406 306.453125 -14.082031 304.421875 -10.28125 C 301.128906 -3.425781 291.363281 0 275.125 0 C 259.144531 0 249.378906 -3.550781 245.828125 -10.65625 C 244.046875 -14.457031 242.960938 -17.816406 242.578125 -20.734375 C 242.203125 -23.648438 242.015625 -28.03125 242.015625 -33.875 L 242.015625 -100.453125 C 242.015625 -122.523438 234.148438 -133.5625 218.421875 -133.5625 C 209.546875 -133.5625 203.519531 -130.644531 200.34375 -124.8125 C 197.175781 -118.976562 195.59375 -110.734375 195.59375 -100.078125 L 195.59375 -33.484375 C 195.59375 -27.398438 195.398438 -22.960938 195.015625 -20.171875 C 194.640625 -17.378906 193.4375 -14.082031 191.40625 -10.28125 C 187.851562 -3.425781 177.957031 0 161.71875 0 C 145.738281 0 135.972656 -3.550781 132.421875 -10.65625 C 130.648438 -14.457031 129.570312 -17.816406 129.1875 -20.734375 C 128.8125 -23.648438 128.625 -28.03125 128.625 -33.875 L 128.625 -100.453125 C 128.625 -122.523438 120.757812 -133.5625 105.03125 -133.5625 C 89.800781 -133.5625 82.1875 -122.523438 82.1875 -100.453125 L 82.1875 -33.109375 C 82.1875 -27.273438 81.992188 -22.898438 81.609375 -19.984375 C 81.234375 -17.066406 80.035156 -13.703125 78.015625 -9.890625 C 74.203125 -3.296875 64.304688 0 48.328125 0 C 32.347656 0 22.582031 -3.425781 19.03125 -10.28125 C 17.25 -14.082031 16.164062 -17.378906 15.78125 -20.171875 C 15.40625 -22.960938 15.21875 -27.398438 15.21875 -33.484375 L 15.21875 -167.4375 C 15.21875 -173.269531 15.40625 -177.644531 15.78125 -180.5625 C 16.164062 -183.476562 17.375 -186.710938 19.40625 -190.265625 C 23.207031 -197.117188 32.210938 -200.546875 46.421875 -200.546875 C 60.628906 -200.546875 69.890625 -198.257812 74.203125 -193.6875 C 78.515625 -189.125 80.671875 -182.53125 80.671875 -173.90625 Z M 80.671875 -173.90625 "/></g></g></g></g></g><g clip-path="url(#86346adc10)"><path fill="#90a093" d="M 835.441406 770.617188 C 833.511719 759.257812 830.265625 748.269531 825.480469 737.792969 C 821.832031 729.792969 817.929688 721.921875 814.328125 713.886719 C 810.90625 706.242188 806.921875 699.058594 800.769531 693.179688 C 796.320312 688.921875 795.644531 683.234375 798.359375 677.660156 C 800.785156 672.695312 803.933594 668.164062 807.46875 663.96875 C 815.164062 654.796875 820.722656 644.578125 823.179688 632.851562 C 825.6875 620.863281 823.085938 611.242188 822.457031 609.007812 C 821.316406 604.894531 819.839844 601.601562 818.667969 599.335938 C 813.734375 588.957031 809.734375 584.089844 806.875 581.582031 C 806.472656 581.230469 806.007812 580.859375 805.332031 580.167969 C 801.734375 576.585938 798.679688 570.609375 797.796875 569.339844 C 797.492188 568.90625 797.378906 568.183594 796.511719 568.117188 C 796.445312 569.933594 797.234375 571.507812 797.523438 573.421875 C 795.851562 571.734375 794.710938 569.964844 792.769531 568.519531 C 792.800781 570 794.039062 570.480469 794.183594 571.976562 C 790.003906 568.117188 786.179688 564.375 781.921875 561.195312 C 781.792969 561.324219 781.648438 561.433594 781.523438 561.5625 C 783.082031 563.8125 784.65625 566.078125 786.484375 568.714844 C 782.035156 566.03125 777.988281 563.589844 773.9375 561.164062 C 774.308594 562.882812 775.59375 563.714844 776.941406 565.148438 C 770.035156 562.785156 763.542969 560.824219 756.730469 560.148438 C 758.386719 561.722656 760.78125 561.835938 762.53125 563.234375 C 755.140625 562.898438 747.796875 562.738281 740.457031 563.570312 C 745.421875 564.535156 750.289062 565.660156 755.238281 566.59375 C 745.003906 568.988281 734.816406 571.378906 724.902344 574.707031 C 724.953125 574.898438 725 575.089844 725.03125 575.285156 C 727.136719 575.109375 729.257812 574.945312 731.925781 574.738281 C 723.828125 578.367188 716.773438 582.5 710.363281 587.816406 C 705.398438 591.929688 701.09375 596.828125 695.597656 600.300781 C 695.550781 600.332031 695.617188 600.523438 695.648438 600.78125 C 698.605469 600.703125 700.886719 598.597656 704.226562 597.859375 C 701.480469 601.714844 698.363281 604.636719 695.308594 608.363281 C 698.027344 607.640625 699.34375 605.761719 701.429688 604.894531 C 701.625 606.132812 701.078125 606.804688 700.742188 607.53125 C 697.960938 613.570312 696.738281 619.964844 696.882812 626.550781 C 697.0625 634.859375 699.617188 642.457031 704.453125 649.269531 C 705.527344 650.78125 706.523438 652.355469 707.34375 654.007812 C 708.710938 656.707031 708.257812 658.765625 706.058594 660.886719 C 702.734375 664.082031 702.863281 667.554688 706.539062 670.445312 C 707.761719 671.410156 708.035156 672.484375 707.585938 673.882812 C 707.28125 674.796875 706.8125 679.105469 706.476562 680.003906 C 705.929688 681.433594 705.851562 682.640625 707.101562 683.3125 L 710.71875 685.242188 C 709.640625 688.582031 712.292969 691.410156 713.929688 691.78125 C 715.90625 692.246094 717.078125 693.453125 718.253906 694.992188 C 721.53125 699.332031 725.484375 702.785156 731.203125 703.300781 C 735.539062 703.6875 739.828125 703.363281 744.085938 702.273438 C 747.542969 701.386719 750.882812 700.039062 754.433594 699.539062 C 755.300781 699.414062 756.378906 698.851562 756.972656 699.574219 C 757.710938 700.472656 756.667969 701.324219 756.296875 702.160156 C 754.898438 705.210938 753.308594 708.183594 752.265625 711.398438 C 751.347656 714.191406 750.289062 716.941406 748.957031 719.589844 C 745.390625 726.644531 741.886719 733.730469 740.96875 741.761719 C 740.730469 743.867188 740.503906 745.957031 739.652344 747.980469 C 737.210938 753.8125 734.753906 759.644531 732.679688 765.605469 C 729.933594 773.574219 729.257812 781.816406 730.109375 790.21875 C 730.367188 792.691406 730.15625 792.742188 727.796875 792.210938 C 719.3125 790.316406 710.765625 789.09375 702.042969 790.1875 C 692.339844 791.40625 684.078125 795.390625 677.589844 802.863281 C 673.21875 807.890625 668.703125 812.792969 664.15625 817.644531 C 661.621094 820.359375 661.554688 820.214844 658.339844 818.382812 C 655.789062 816.921875 653.152344 816.003906 650.550781 818.320312 C 649.9375 818.863281 649.410156 818.769531 648.703125 818.382812 C 646.582031 817.226562 645.359375 815.410156 644.507812 813.242188 C 643.707031 811.183594 642.871094 809.144531 641.070312 807.699219 C 638.082031 805.304688 633.617188 806.285156 632.105469 809.769531 C 631.703125 810.6875 631.191406 811.152344 630.226562 811.441406 C 626.675781 812.488281 625.648438 814.945312 627.558594 817.996094 C 628.136719 818.929688 628.136719 819.523438 627.398438 820.328125 C 626.226562 821.597656 625.808594 823.042969 626.917969 824.617188 C 627.300781 825.148438 627.382812 825.726562 627.042969 826.351562 C 626.304688 827.71875 626.820312 828.875 627.75 829.917969 C 628.121094 830.320312 628.765625 830.671875 628.585938 831.25 C 627.496094 834.867188 630.546875 837.117188 632.089844 839.238281 C 633.871094 841.710938 635.574219 844.394531 637.632812 846.707031 C 638.179688 847.316406 638.789062 847.878906 639.433594 848.378906 C 641.746094 850.195312 644.074219 851.976562 645.90625 854.371094 C 647.867188 856.941406 649.875 859.464844 652.027344 861.875 C 656.300781 866.644531 661.539062 869.121094 667.886719 866.773438 C 675.855469 863.835938 684.046875 863.382812 692.402344 863.304688 C 704.726562 863.191406 716.917969 861.617188 728.96875 858.980469 C 734.320312 857.808594 739.507812 857.503906 744.664062 859.65625 C 745.226562 859.898438 745.855469 859.960938 746.464844 860.105469 C 755.222656 862.261719 764.152344 863.320312 773.117188 864.140625 C 784.445312 865.167969 795.46875 864.027344 806.070312 859.753906 C 814.554688 856.347656 821.222656 850.996094 824.578125 842.144531 C 825.992188 838.417969 827.40625 834.691406 829.078125 831.074219 C 834.507812 819.363281 837.304688 807.121094 837.222656 794.171875 C 837.175781 786.25 836.804688 778.378906 835.488281 770.570312 Z M 835.441406 770.617188 " fill-opacity="1" fill-rule="nonzero"/></g><g clip-path="url(#3deab43b53)"><g clip-path="url(#7ecc40a5a8)"><g transform="matrix(1, 0, 0, 1, 214, 412)"><g clip-path="url(#aeb8bf6b30)"><g clip-path="url(#8e5ae56cb0)"><g clip-path="url(#6bae556f06)"><path fill="#e49178" d="M 0.785156 0.1875 L 100.851562 0.1875 L 100.851562 92.667969 L 0.785156 92.667969 Z M 0.785156 0.1875 " fill-opacity="1" fill-rule="nonzero"/></g></g></g></g></g></g></g></g></svg>