<svg xmlns="http://www.w3.org/2000/svg" xmlns:xlink="http://www.w3.org/1999/xlink" width="1820" zoomAndPan="magnify" viewBox="0 0 1365 1535.999932" height="2048" preserveAspectRatio="xMidYMid meet" version="1.0"><defs><g/><clipPath id="295bdd20b5"><path d="M 0.542969 0.5 L 1266.542969 0.5 L 1266.542969 1237.511719 L 0.542969 1237.511719 Z M 0.542969 0.5 " clip-rule="nonzero"/></clipPath><clipPath id="fb50ee001e"><path d="M 64.527344 0.5 L 1202.148438 0.5 C 1219.117188 0.5 1235.394531 7.242188 1247.390625 19.242188 C 1259.390625 31.238281 1266.132812 47.515625 1266.132812 64.484375 L 1266.132812 1173.527344 C 1266.132812 1190.496094 1259.390625 1206.769531 1247.390625 1218.769531 C 1235.394531 1230.769531 1219.117188 1237.511719 1202.148438 1237.511719 L 64.527344 1237.511719 C 47.554688 1237.511719 31.28125 1230.769531 19.28125 1218.769531 C 7.28125 1206.769531 0.542969 1190.496094 0.542969 1173.527344 L 0.542969 64.484375 C 0.542969 47.515625 7.28125 31.238281 19.28125 19.242188 C 31.28125 7.242188 47.554688 0.5 64.527344 0.5 Z M 64.527344 0.5 " clip-rule="nonzero"/></clipPath><clipPath id="a07caa7e6c"><path d="M 0.542969 0.5 L 1266.320312 0.5 L 1266.320312 1237.511719 L 0.542969 1237.511719 Z M 0.542969 0.5 " clip-rule="nonzero"/></clipPath><clipPath id="b918ac232b"><path d="M 64.527344 0.5 L 1202.148438 0.5 C 1219.117188 0.5 1235.394531 7.242188 1247.390625 19.242188 C 1259.390625 31.238281 1266.132812 47.515625 1266.132812 64.484375 L 1266.132812 1173.527344 C 1266.132812 1190.496094 1259.390625 1206.769531 1247.390625 1218.769531 C 1235.394531 1230.769531 1219.117188 1237.511719 1202.148438 1237.511719 L 64.527344 1237.511719 C 47.554688 1237.511719 31.28125 1230.769531 19.28125 1218.769531 C 7.28125 1206.769531 0.542969 1190.496094 0.542969 1173.527344 L 0.542969 64.484375 C 0.542969 47.515625 7.28125 31.238281 19.28125 19.242188 C 31.28125 7.242188 47.554688 0.5 64.527344 0.5 Z M 64.527344 0.5 " clip-rule="nonzero"/></clipPath><clipPath id="211195d3af"><rect x="0" width="1267" y="0" height="1238"/></clipPath><clipPath id="21a67ee5b1"><rect x="0" width="1160" y="0" height="534"/></clipPath><clipPath id="bf32c54717"><path d="M 805.332031 654.027344 L 986.59375 654.027344 L 986.59375 836.550781 L 805.332031 836.550781 Z M 805.332031 654.027344 " clip-rule="nonzero"/></clipPath><clipPath id="f6eb047417"><path d="M 277.539062 464.546875 L 394.761719 464.546875 L 394.761719 572.492188 L 277.539062 572.492188 Z M 277.539062 464.546875 " clip-rule="nonzero"/></clipPath><clipPath id="92b9a9460d"><path d="M 335.96875 464.546875 C 303.699219 464.546875 277.539062 488.710938 277.539062 518.519531 C 277.539062 548.328125 303.699219 572.492188 335.96875 572.492188 C 368.238281 572.492188 394.394531 548.328125 394.394531 518.519531 C 394.394531 488.710938 368.238281 464.546875 335.96875 464.546875 Z M 335.96875 464.546875 " clip-rule="nonzero"/></clipPath><clipPath id="d6798b1e55"><path d="M 0.539062 0.546875 L 117.398438 0.546875 L 117.398438 108.492188 L 0.539062 108.492188 Z M 0.539062 0.546875 " clip-rule="nonzero"/></clipPath><clipPath id="f84180645f"><path d="M 58.96875 0.546875 C 26.699219 0.546875 0.539062 24.710938 0.539062 54.519531 C 0.539062 84.328125 26.699219 108.492188 58.96875 108.492188 C 91.238281 108.492188 117.394531 84.328125 117.394531 54.519531 C 117.394531 24.710938 91.238281 0.546875 58.96875 0.546875 Z M 58.96875 0.546875 " clip-rule="nonzero"/></clipPath><clipPath id="4436f3d6cd"><rect x="0" width="118" y="0" height="109"/></clipPath><clipPath id="c6cfd2ef7a"><rect x="0" width="1267" y="0" height="1238"/></clipPath></defs><g transform="matrix(1, 0, 0, 1, 34, 136)"><g clip-path="url(#c6cfd2ef7a)"><g clip-path="url(#295bdd20b5)"><g clip-path="url(#fb50ee001e)"><g transform="matrix(1, 0, 0, 1, 0, -0.000000000000113687)"><g clip-path="url(#211195d3af)"><g clip-path="url(#a07caa7e6c)"><g clip-path="url(#b918ac232b)"><path fill="#e49178" d="M 0.542969 0.5 L 1266.542969 0.5 L 1266.542969 1237.511719 L 0.542969 1237.511719 Z M 0.542969 0.5 " fill-opacity="1" fill-rule="nonzero"/></g></g></g></g></g></g><g transform="matrix(1, 0, 0, 1, 68, 392)"><g clip-path="url(#21a67ee5b1)"><g fill="#ffffff" fill-opacity="1"><g transform="translate(3.089564, 426.302619)"><g><path d="M 153.671875 -155.453125 L 124.8125 -157.234375 L 124.8125 -95.9375 C 124.8125 -87.945312 126.066406 -82.171875 128.578125 -78.609375 C 131.097656 -75.054688 135.835938 -73.28125 142.796875 -73.28125 C 149.753906 -73.28125 155.082031 -73.054688 158.78125 -72.609375 C 162.488281 -72.171875 166.414062 -70.769531 170.5625 -68.40625 C 177.363281 -64.550781 180.765625 -54.628906 180.765625 -38.640625 C 180.765625 -19.984375 176.617188 -8.582031 168.328125 -4.4375 C 163.890625 -2.363281 159.96875 -1.101562 156.5625 -0.65625 C 153.15625 -0.21875 148.195312 0 141.6875 0 C 110.894531 0 87.503906 -6.957031 71.515625 -20.875 C 55.523438 -34.789062 47.53125 -58.332031 47.53125 -91.5 L 47.53125 -157.234375 C 41.894531 -156.347656 35.820312 -155.90625 29.3125 -155.90625 C 22.800781 -155.90625 17.394531 -158.421875 13.09375 -163.453125 C 8.800781 -168.484375 6.65625 -177.066406 6.65625 -189.203125 C 6.65625 -201.347656 7.394531 -210.160156 8.875 -215.640625 C 10.363281 -221.117188 12.4375 -225.039062 15.09375 -227.40625 C 19.832031 -231.257812 25.757812 -233.1875 32.875 -233.1875 L 47.53125 -231.40625 L 47.53125 -277.15625 C 47.53125 -283.96875 47.75 -289 48.1875 -292.25 C 48.632812 -295.507812 50.039062 -299.066406 52.40625 -302.921875 C 56.257812 -310.316406 67.660156 -314.015625 86.609375 -314.015625 C 106.742188 -314.015625 118.738281 -308.535156 122.59375 -297.578125 C 124.070312 -292.847656 124.8125 -285.300781 124.8125 -274.9375 L 124.8125 -231.40625 C 137.832031 -232.59375 147.675781 -233.1875 154.34375 -233.1875 C 161.007812 -233.1875 166.039062 -232.960938 169.4375 -232.515625 C 172.84375 -232.066406 176.769531 -230.660156 181.21875 -228.296875 C 188.914062 -224.441406 192.765625 -213.039062 192.765625 -194.09375 C 192.765625 -175.4375 188.765625 -164.035156 180.765625 -159.890625 C 176.328125 -157.816406 172.40625 -156.554688 169 -156.109375 C 165.59375 -155.671875 160.484375 -155.453125 153.671875 -155.453125 Z M 153.671875 -155.453125 "/></g></g></g><g fill="#ffffff" fill-opacity="1"><g transform="translate(202.508909, 426.302619)"><g><path d="M 17.765625 -194.984375 C 17.765625 -201.796875 17.984375 -206.90625 18.421875 -210.3125 C 18.867188 -213.71875 20.128906 -217.640625 22.203125 -222.078125 C 26.347656 -229.773438 37.898438 -233.625 56.859375 -233.625 C 71.066406 -233.625 81.128906 -231.109375 87.046875 -226.078125 C 92.085938 -221.929688 94.753906 -215.566406 95.046875 -206.984375 C 95.347656 -204.015625 95.5 -199.71875 95.5 -194.09375 L 95.5 -38.640625 C 95.5 -31.828125 95.273438 -26.71875 94.828125 -23.3125 C 94.378906 -19.90625 92.972656 -15.984375 90.609375 -11.546875 C 86.753906 -3.847656 75.351562 0 56.40625 0 C 37.75 0 26.347656 -4 22.203125 -12 C 20.128906 -16.4375 18.867188 -20.28125 18.421875 -23.53125 C 17.984375 -26.789062 17.765625 -31.972656 17.765625 -39.078125 Z M 90.828125 -277.375 C 88.609375 -273.082031 84.6875 -270.046875 79.0625 -268.265625 C 73.4375 -266.492188 65.957031 -265.609375 56.625 -265.609375 C 47.300781 -265.609375 39.828125 -266.492188 34.203125 -268.265625 C 28.578125 -270.046875 24.648438 -273.15625 22.421875 -277.59375 C 20.203125 -282.039062 18.867188 -285.960938 18.421875 -289.359375 C 17.984375 -292.765625 17.765625 -297.875 17.765625 -304.6875 C 17.765625 -311.5 17.984375 -316.609375 18.421875 -320.015625 C 18.867188 -323.421875 20.128906 -327.195312 22.203125 -331.34375 C 26.347656 -339.332031 37.898438 -343.328125 56.859375 -343.328125 C 75.503906 -343.328125 86.753906 -339.332031 90.609375 -331.34375 C 92.972656 -326.894531 94.378906 -322.96875 94.828125 -319.5625 C 95.273438 -316.164062 95.5 -311.0625 95.5 -304.25 C 95.5 -297.4375 95.273438 -292.328125 94.828125 -288.921875 C 94.378906 -285.515625 93.046875 -281.664062 90.828125 -277.375 Z M 90.828125 -277.375 "/></g></g></g><g fill="#ffffff" fill-opacity="1"><g transform="translate(315.764897, 426.302619)"><g><path d="M 94.15625 -202.984375 C 108.070312 -224.003906 124.800781 -234.515625 144.34375 -234.515625 C 174.550781 -234.515625 197.054688 -221.632812 211.859375 -195.875 C 215.117188 -200.3125 219.039062 -204.972656 223.625 -209.859375 C 228.21875 -214.742188 235.546875 -220.070312 245.609375 -225.84375 C 255.679688 -231.625 266.046875 -234.515625 276.703125 -234.515625 C 300.390625 -234.515625 320.226562 -225.410156 336.21875 -207.203125 C 352.207031 -188.992188 360.203125 -158.863281 360.203125 -116.8125 L 360.203125 -39.078125 C 360.203125 -32.273438 359.976562 -27.171875 359.53125 -23.765625 C 359.09375 -20.359375 357.691406 -16.4375 355.328125 -12 C 351.472656 -4 340.070312 0 321.125 0 C 302.46875 0 291.066406 -4.144531 286.921875 -12.4375 C 284.847656 -16.875 283.585938 -20.796875 283.140625 -24.203125 C 282.703125 -27.609375 282.484375 -32.71875 282.484375 -39.53125 L 282.484375 -117.25 C 282.484375 -143.019531 273.304688 -155.90625 254.953125 -155.90625 C 244.585938 -155.90625 237.550781 -152.5 233.84375 -145.6875 C 230.144531 -138.875 228.296875 -129.25 228.296875 -116.8125 L 228.296875 -39.078125 C 228.296875 -31.972656 228.070312 -26.789062 227.625 -23.53125 C 227.1875 -20.28125 225.78125 -16.4375 223.40625 -12 C 219.257812 -4 207.710938 0 188.765625 0 C 170.109375 0 158.707031 -4.144531 154.5625 -12.4375 C 152.488281 -16.875 151.226562 -20.796875 150.78125 -24.203125 C 150.34375 -27.609375 150.125 -32.71875 150.125 -39.53125 L 150.125 -117.25 C 150.125 -143.019531 140.945312 -155.90625 122.59375 -155.90625 C 104.820312 -155.90625 95.9375 -143.019531 95.9375 -117.25 L 95.9375 -38.640625 C 95.9375 -31.828125 95.710938 -26.71875 95.265625 -23.3125 C 94.828125 -19.90625 93.421875 -15.984375 91.046875 -11.546875 C 86.609375 -3.847656 75.0625 0 56.40625 0 C 37.75 0 26.347656 -4 22.203125 -12 C 20.128906 -16.4375 18.867188 -20.28125 18.421875 -23.53125 C 17.984375 -26.789062 17.765625 -31.972656 17.765625 -39.078125 L 17.765625 -195.421875 C 17.765625 -202.234375 17.984375 -207.34375 18.421875 -210.75 C 18.867188 -214.15625 20.28125 -217.929688 22.65625 -222.078125 C 27.09375 -230.066406 37.601562 -234.0625 54.1875 -234.0625 C 70.769531 -234.0625 81.578125 -231.394531 86.609375 -226.0625 C 91.640625 -220.738281 94.15625 -213.046875 94.15625 -202.984375 Z M 94.15625 -202.984375 "/></g></g></g><g fill="#ffffff" fill-opacity="1"><g transform="translate(693.728967, 426.302619)"><g><path d="M 169.671875 -209.203125 C 171.441406 -225.773438 183.132812 -234.0625 204.75 -234.0625 C 216.300781 -234.0625 224.890625 -233.171875 230.515625 -231.390625 C 236.140625 -229.617188 240.0625 -226.515625 242.28125 -222.078125 C 244.507812 -217.640625 245.84375 -213.71875 246.28125 -210.3125 C 246.726562 -206.90625 246.953125 -201.796875 246.953125 -194.984375 L 246.953125 -39.53125 C 246.953125 -32.71875 246.726562 -27.609375 246.28125 -24.203125 C 245.84375 -20.796875 244.585938 -16.875 242.515625 -12.4375 C 238.367188 -4.738281 228.222656 -0.890625 212.078125 -0.890625 C 195.941406 -0.890625 185.132812 -2.882812 179.65625 -6.875 C 174.175781 -10.875 170.992188 -16.722656 170.109375 -24.421875 C 159.148438 -8.734375 140.863281 -0.890625 115.25 -0.890625 C 89.644531 -0.890625 65.882812 -12.582031 43.96875 -35.96875 C 22.0625 -59.363281 11.109375 -86.53125 11.109375 -117.46875 C 11.109375 -148.414062 22.132812 -175.507812 44.1875 -198.75 C 66.25 -222 90.457031 -233.625 116.8125 -233.625 C 126.882812 -233.625 136.0625 -231.847656 144.34375 -228.296875 C 152.632812 -224.742188 158.410156 -221.410156 161.671875 -218.296875 C 164.929688 -215.191406 167.597656 -212.160156 169.671875 -209.203125 Z M 88.828125 -116.8125 C 88.828125 -107.039062 92.675781 -98.226562 100.375 -90.375 C 108.070312 -82.53125 117.398438 -78.609375 128.359375 -78.609375 C 139.316406 -78.609375 148.421875 -82.601562 155.671875 -90.59375 C 162.929688 -98.59375 166.5625 -107.40625 166.5625 -117.03125 C 166.5625 -126.65625 163.082031 -135.613281 156.125 -143.90625 C 149.164062 -152.195312 139.835938 -156.34375 128.140625 -156.34375 C 116.441406 -156.34375 106.960938 -152.195312 99.703125 -143.90625 C 92.453125 -135.613281 88.828125 -126.582031 88.828125 -116.8125 Z M 88.828125 -116.8125 "/></g></g></g><g fill="#ffffff" fill-opacity="1"><g transform="translate(958.437049, 426.302619)"><g><path d="M 153.671875 -155.453125 L 124.8125 -157.234375 L 124.8125 -95.9375 C 124.8125 -87.945312 126.066406 -82.171875 128.578125 -78.609375 C 131.097656 -75.054688 135.835938 -73.28125 142.796875 -73.28125 C 149.753906 -73.28125 155.082031 -73.054688 158.78125 -72.609375 C 162.488281 -72.171875 166.414062 -70.769531 170.5625 -68.40625 C 177.363281 -64.550781 180.765625 -54.628906 180.765625 -38.640625 C 180.765625 -19.984375 176.617188 -8.582031 168.328125 -4.4375 C 163.890625 -2.363281 159.96875 -1.101562 156.5625 -0.65625 C 153.15625 -0.21875 148.195312 0 141.6875 0 C 110.894531 0 87.503906 -6.957031 71.515625 -20.875 C 55.523438 -34.789062 47.53125 -58.332031 47.53125 -91.5 L 47.53125 -157.234375 C 41.894531 -156.347656 35.820312 -155.90625 29.3125 -155.90625 C 22.800781 -155.90625 17.394531 -158.421875 13.09375 -163.453125 C 8.800781 -168.484375 6.65625 -177.066406 6.65625 -189.203125 C 6.65625 -201.347656 7.394531 -210.160156 8.875 -215.640625 C 10.363281 -221.117188 12.4375 -225.039062 15.09375 -227.40625 C 19.832031 -231.257812 25.757812 -233.1875 32.875 -233.1875 L 47.53125 -231.40625 L 47.53125 -277.15625 C 47.53125 -283.96875 47.75 -289 48.1875 -292.25 C 48.632812 -295.507812 50.039062 -299.066406 52.40625 -302.921875 C 56.257812 -310.316406 67.660156 -314.015625 86.609375 -314.015625 C 106.742188 -314.015625 118.738281 -308.535156 122.59375 -297.578125 C 124.070312 -292.847656 124.8125 -285.300781 124.8125 -274.9375 L 124.8125 -231.40625 C 137.832031 -232.59375 147.675781 -233.1875 154.34375 -233.1875 C 161.007812 -233.1875 166.039062 -232.960938 169.4375 -232.515625 C 172.84375 -232.066406 176.769531 -230.660156 181.21875 -228.296875 C 188.914062 -224.441406 192.765625 -213.039062 192.765625 -194.09375 C 192.765625 -175.4375 188.765625 -164.035156 180.765625 -159.890625 C 176.328125 -157.816406 172.40625 -156.554688 169 -156.109375 C 165.59375 -155.671875 160.484375 -155.453125 153.671875 -155.453125 Z M 153.671875 -155.453125 "/></g></g></g></g></g><g clip-path="url(#bf32c54717)"><path fill="#e49178" d="M 984.832031 884.554688 C 982.71875 872.113281 979.164062 860.078125 973.921875 848.605469 C 969.925781 839.839844 965.652344 831.21875 961.707031 822.417969 C 957.960938 814.042969 953.597656 806.175781 946.855469 799.738281 C 941.984375 795.074219 941.242188 788.84375 944.21875 782.738281 C 946.875 777.300781 950.324219 772.339844 954.195312 767.746094 C 962.625 757.699219 968.710938 746.507812 971.40625 733.660156 C 974.148438 720.535156 971.300781 709.992188 970.613281 707.546875 C 969.363281 703.042969 967.746094 699.433594 966.460938 696.953125 C 961.058594 685.585938 956.675781 680.253906 953.542969 677.507812 C 953.105469 677.121094 952.59375 676.71875 951.855469 675.960938 C 947.914062 672.035156 944.570312 665.488281 943.601562 664.101562 C 943.265625 663.625 943.144531 662.832031 942.195312 662.761719 C 942.125 664.75 942.984375 666.476562 943.300781 668.570312 C 941.472656 666.722656 940.222656 664.785156 938.09375 663.203125 C 938.128906 664.820312 939.484375 665.347656 939.640625 666.984375 C 935.066406 662.761719 930.878906 658.664062 926.214844 655.179688 C 926.074219 655.320312 925.917969 655.441406 925.777344 655.582031 C 927.484375 658.046875 929.207031 660.527344 931.214844 663.414062 C 926.339844 660.476562 921.90625 657.800781 917.46875 655.144531 C 917.875 657.027344 919.28125 657.941406 920.761719 659.507812 C 913.195312 656.921875 906.085938 654.773438 898.625 654.035156 C 900.4375 655.757812 903.058594 655.882812 904.976562 657.414062 C 896.882812 657.042969 888.839844 656.867188 880.796875 657.78125 C 886.234375 658.839844 891.566406 660.070312 896.988281 661.089844 C 885.777344 663.710938 874.621094 666.335938 863.765625 669.976562 C 863.816406 670.1875 863.871094 670.398438 863.90625 670.609375 C 866.210938 670.417969 868.53125 670.242188 871.453125 670.011719 C 862.585938 673.988281 854.859375 678.511719 847.839844 684.335938 C 842.402344 688.839844 837.683594 694.207031 831.667969 698.007812 C 831.613281 698.042969 831.683594 698.253906 831.71875 698.539062 C 834.957031 698.449219 837.457031 696.144531 841.117188 695.335938 C 838.109375 699.558594 834.695312 702.761719 831.351562 706.84375 C 834.324219 706.050781 835.765625 703.992188 838.054688 703.042969 C 838.265625 704.398438 837.667969 705.136719 837.296875 705.929688 C 834.253906 712.542969 832.917969 719.546875 833.074219 726.761719 C 833.269531 735.859375 836.066406 744.183594 841.363281 751.644531 C 842.542969 753.300781 843.632812 755.023438 844.53125 756.835938 C 846.027344 759.792969 845.535156 762.042969 843.121094 764.367188 C 839.480469 767.867188 839.621094 771.671875 843.652344 774.835938 C 844.988281 775.894531 845.289062 777.074219 844.792969 778.601562 C 844.460938 779.605469 843.949219 784.320312 843.582031 785.308594 C 842.980469 786.875 842.894531 788.195312 844.265625 788.933594 L 848.226562 791.042969 C 847.046875 794.703125 849.949219 797.800781 851.746094 798.207031 C 853.910156 798.714844 855.195312 800.035156 856.480469 801.726562 C 860.070312 806.476562 864.398438 810.261719 870.664062 810.824219 C 875.414062 811.246094 880.113281 810.894531 884.773438 809.695312 C 888.558594 808.730469 892.21875 807.25 896.105469 806.707031 C 897.058594 806.566406 898.238281 805.949219 898.886719 806.742188 C 899.695312 807.726562 898.554688 808.660156 898.148438 809.574219 C 896.617188 812.917969 894.875 816.171875 893.730469 819.691406 C 892.730469 822.753906 891.566406 825.761719 890.105469 828.667969 C 886.199219 836.390625 882.363281 844.152344 881.359375 852.949219 C 881.097656 855.253906 880.851562 857.542969 879.917969 859.761719 C 877.242188 866.148438 874.550781 872.535156 872.28125 879.0625 C 869.273438 887.792969 868.53125 896.820312 869.464844 906.023438 C 869.746094 908.734375 869.519531 908.785156 866.929688 908.203125 C 857.640625 906.128906 848.277344 904.789062 838.722656 905.988281 C 828.09375 907.324219 819.050781 911.6875 811.941406 919.871094 C 807.15625 925.378906 802.210938 930.746094 797.230469 936.0625 C 794.449219 939.035156 794.378906 938.875 790.859375 936.871094 C 788.0625 935.269531 785.175781 934.265625 782.324219 936.800781 C 781.65625 937.398438 781.074219 937.292969 780.300781 936.871094 C 777.980469 935.601562 776.640625 933.613281 775.710938 931.238281 C 774.828125 928.988281 773.914062 926.75 771.941406 925.167969 C 768.671875 922.546875 763.777344 923.621094 762.125 927.4375 C 761.683594 928.441406 761.121094 928.953125 760.066406 929.269531 C 756.175781 930.410156 755.050781 933.105469 757.144531 936.449219 C 757.777344 937.46875 757.777344 938.121094 756.96875 939 C 755.683594 940.390625 755.226562 941.972656 756.441406 943.699219 C 756.863281 944.277344 756.949219 944.910156 756.582031 945.597656 C 755.773438 947.09375 756.335938 948.359375 757.355469 949.503906 C 757.761719 949.945312 758.464844 950.332031 758.269531 950.964844 C 757.074219 954.925781 760.417969 957.386719 762.105469 959.710938 C 764.058594 962.421875 765.925781 965.359375 768.175781 967.894531 C 768.777344 968.5625 769.445312 969.179688 770.148438 969.722656 C 772.683594 971.710938 775.234375 973.664062 777.238281 976.289062 C 779.386719 979.101562 781.585938 981.867188 783.945312 984.503906 C 788.625 989.730469 794.363281 992.441406 801.3125 989.871094 C 810.039062 986.652344 819.015625 986.160156 828.164062 986.070312 C 841.664062 985.949219 855.019531 984.222656 868.214844 981.335938 C 874.074219 980.054688 879.761719 979.71875 885.410156 982.078125 C 886.023438 982.339844 886.710938 982.410156 887.378906 982.570312 C 896.96875 984.925781 906.753906 986.089844 916.574219 986.984375 C 928.976562 988.113281 941.050781 986.863281 952.664062 982.183594 C 961.957031 978.453125 969.257812 972.59375 972.9375 962.894531 C 974.484375 958.8125 976.03125 954.730469 977.863281 950.773438 C 983.8125 937.945312 986.871094 924.535156 986.785156 910.351562 C 986.730469 901.675781 986.328125 893.054688 984.882812 884.5 Z M 984.832031 884.554688 " fill-opacity="1" fill-rule="nonzero"/></g><g clip-path="url(#f6eb047417)"><g clip-path="url(#92b9a9460d)"><g transform="matrix(1, 0, 0, 1, 277, 464)"><g clip-path="url(#4436f3d6cd)"><g clip-path="url(#d6798b1e55)"><g clip-path="url(#f84180645f)"><path fill="#2e4a5a" d="M 0.539062 0.546875 L 117.339844 0.546875 L 117.339844 108.492188 L 0.539062 108.492188 Z M 0.539062 0.546875 " fill-opacity="1" fill-rule="nonzero"/></g></g></g></g></g></g></g></g></svg>
